<?xml version="1.0" encoding="UTF-8" standalone="no"?>
<!-- Created with Inkscape (http://www.inkscape.org/) -->

<svg
   width="120.00309"
   height="120.00307"
   viewBox="0 0 120.00309 120.00307"
   version="1.1"
   id="svg1"
   xml:space="preserve"
   xmlns:xlink="http://www.w3.org/1999/xlink"
   xmlns="http://www.w3.org/2000/svg"
   xmlns:svg="http://www.w3.org/2000/svg"><defs
     id="defs1"><linearGradient
       id="linearGradient3"><stop
         style="stop-color:#fffdd0;stop-opacity:1;"
         offset="1"
         id="stop3" /><stop
         style="stop-color:#fffdd0;stop-opacity:0;"
         offset="1"
         id="stop4" /></linearGradient><linearGradient
       xlink:href="#linearGradient3"
       id="linearGradient4"
       x1="-0.65712416"
       y1="59.902081"
       x2="120.02028"
       y2="59.902081"
       gradientUnits="userSpaceOnUse"
       gradientTransform="matrix(0.99441216,0,0,0.99441216,0.65191381,0.43264416)" /></defs><g
     id="layer1"
     transform="translate(0.00153783,0.00153595)"><path
       style="mix-blend-mode:normal;fill:#fffdd0;fill-opacity:1;stroke:url(#linearGradient4);stroke-width:0.994411;stroke-opacity:1"
       d="m 41.261474,118.11069 c -0.915047,-1.16329 -1.097191,-2.14684 -1.101976,-5.95044 l -0.0058,-4.55678 -4.059983,-1.58679 c -2.232991,-0.87272 -4.615559,-1.81299 -5.294599,-2.08947 -1.088251,-0.44309 -1.626893,-0.1139 -4.543585,2.77688 -4.749113,4.70688 -5.403251,4.62342 -11.493178,-1.4665 C 8.6435789,99.118743 8.5476716,98.3692 13.241535,93.351444 L 16.4667,89.903732 14.563854,85.473443 c -1.046567,-2.436658 -1.902847,-4.702173 -1.902847,-5.034477 0,-0.407533 -1.526223,-0.60419 -4.6890157,-0.60419 -3.9428514,0 -4.9107876,-0.174446 -6.0826646,-1.096243 -1.37635909,-1.082645 -1.39364897,-1.180538 -1.39364897,-7.890652 0,-3.736924 0.14785193,-7.179702 0.32855982,-7.65062 C 1.4383667,61.596866 3.9682503,60.79339 8.3932447,60.79339 c 4.1959733,0 4.2518773,-0.01768 4.5989043,-1.454549 0.193212,-0.800004 1.064537,-3.065332 1.936275,-5.034064 L 16.513407,50.725265 13.264888,47.34227 C 8.52444,42.405585 8.6221025,41.727411 14.969933,35.502315 21.188597,29.40389 21.48991,29.366728 26.386748,34.094227 l 3.573265,3.449696 3.11913,-1.529692 c 1.715523,-0.841332 4.011698,-1.817111 5.10261,-2.168398 L 40.16523,33.207129 V 28.46376 c 0,-4.330934 0.112886,-4.856255 1.298277,-6.041646 1.245216,-1.245216 1.574879,-1.29759 8.066143,-1.281455 4.712822,0.01171 7.042614,0.225562 7.672694,0.704265 1.095454,0.832269 1.998925,3.069204 2.019162,4.999315 0.01114,1.061803 0.356656,0.580472 1.369413,-1.907668 l 1.354522,-3.327786 -2.162804,-2.346366 c -2.934646,-3.183717 -2.845808,-4.355784 0.606858,-8.00647 3.066406,-3.2422723 5.267978,-4.6193903 6.672349,-4.1736604 0.509465,0.1616982 1.829739,1.2192022 2.933943,2.3500087 l 2.007641,2.0560117 2.990056,-1.213597 2.990054,-1.2135963 0.266825,-3.2735128 c 0.373366,-4.580594 1.332873,-5.29193335 7.138159,-5.29193335 5.797702,0 6.764297,0.71373395 7.138158,5.27082235 l 0.266823,3.2524019 2.994828,1.2141782 2.994826,1.214177 2.125913,-2.1259163 c 3.2217,-3.221698 4.66017,-3.0042744 8.88059,1.3422943 4.11216,4.235075 4.26015,5.284076 1.21197,8.590962 l -2.15559,2.338535 1.22997,3.195622 1.22995,3.195622 3.22383,0.0078 c 4.55902,0.01098 4.97455,0.593657 4.97455,6.97572 0,6.208161 -0.42687,6.780418 -5.06645,6.791917 l -3.13193,0.0078 -1.22995,3.195622 -1.22997,3.195622 2.15559,2.338535 c 1.29447,1.404341 2.15558,2.854465 2.15558,3.630045 0,1.596166 -4.86043,7.065716 -7.12496,8.01788 -1.88674,0.793312 -2.85333,0.406963 -5.63876,-2.253817 l -1.920696,-1.834755 -1.778366,0.919628 c -0.978101,0.505796 -2.37495,1.101101 -3.104108,1.322901 l -1.325743,0.403274 1.489322,0.04547 c 1.718766,0.05246 3.517958,0.908823 4.444289,2.115338 0.89168,1.16138 0.83799,4.014926 -0.09002,4.785115 -1.175034,0.975192 -2.934484,0.173619 -2.934484,-1.336896 0,-1.019836 -0.274231,-1.286676 -1.322318,-1.286676 -0.84006,0 -1.322317,0.298124 -1.322317,0.817433 0,0.449589 -0.584225,1.401658 -1.298278,2.11571 -1.17692,1.176921 -1.72302,1.298277 -5.842242,1.298277 -4.119223,0 -4.665323,-0.121356 -5.842244,-1.298277 -1.076764,-1.076766 -1.29982,-1.821304 -1.307313,-4.363656 l -0.009,-3.065374 -2.793942,-1.079569 -2.793942,-1.079567 1.261537,3.123247 C 78.976476,74.052303 72.345451,89.352073 59.471056,94.793157 46.917421,100.09867 32.187059,94.314795 26.135537,81.703953 24.295318,77.869097 24.092094,77.00628 23.873985,72.102186 c -0.197026,-4.430092 -0.0435,-6.032281 0.863287,-9.009706 3.380571,-11.099952 13.41938,-18.395907 25.213091,-18.324241 3.830465,0.02328 6.853296,0.713403 10.928522,2.495035 0.776836,0.339622 0.752801,0.04192 -0.206976,-2.563517 l -1.085877,-2.947762 h -3.281307 c -4.62366,0 -5.032043,-0.565494 -5.032043,-6.967959 0,-4.204559 0.159281,-5.177564 0.96727,-5.908785 0.532001,-0.481453 1.36506,-0.875367 1.851246,-0.875367 0.631841,0 0.883976,-0.457874 0.883976,-1.605287 v -1.605286 l -5.421506,0.150736 -5.421506,0.150736 -0.264464,5.024809 c -0.145454,2.763646 -0.445776,5.304134 -0.66738,5.645529 -0.221604,0.341393 -1.649708,1.029069 -3.173564,1.528166 -1.523856,0.499097 -4.13246,1.588374 -5.796897,2.420615 -4.453109,2.226615 -5.229149,2.068049 -9.350227,-1.910517 l -3.54632,-3.423682 -3.909892,3.936162 -3.909892,3.936161 3.540685,3.667512 c 1.947376,2.017131 3.540683,4.057605 3.540683,4.534388 0,0.476782 -0.682649,2.344559 -1.517,4.150614 -0.834351,1.806058 -1.926074,4.537894 -2.42605,6.070749 -1.18501,3.633064 -2.541337,4.35351 -8.1960129,4.35351 H 4.1981693 v 5.553738 5.553738 h 4.9864205 c 4.7700082,0 5.0344962,0.06112 6.0941572,1.408258 0.609254,0.774544 1.254003,2.024135 1.432771,2.77687 0.17877,0.752735 1.156562,3.208369 2.172874,5.456967 2.228545,4.930676 2.059695,5.665708 -2.28782,9.959217 l -2.883356,2.847541 3.799598,3.825122 3.799599,3.82514 3.618123,-3.41315 c 1.99179,-1.87896 4.098638,-3.413162 4.687133,-3.413162 0.587957,0 2.064744,0.507978 3.281751,1.128862 1.217006,0.62087 3.735622,1.68123 5.596924,2.35634 5.185074,1.8807 5.371378,2.1571 5.371378,7.96871 v 4.94285 h 5.553737 5.553738 v -4.2577 c 0,-5.65865 0.720389,-7.0135 4.35351,-8.18773 1.532856,-0.49541 4.162727,-1.58714 5.844161,-2.42604 1.681433,-0.83892 3.549211,-1.525292 4.150615,-1.525292 0.631186,0 2.64396,1.496882 4.760976,3.540702 l 3.667511,3.54068 3.936161,-3.9099 3.936163,-3.909896 -3.423682,-3.546319 c -3.984062,-4.126773 -4.140771,-4.903436 -1.889301,-9.363575 0.84391,-1.671776 1.791111,-3.993012 2.104891,-5.158301 1.051908,-3.906488 1.481935,-4.170677 7.269733,-4.466194 4.938408,-0.252149 5.193499,-0.32371 5.477936,-1.536724 0.164082,-0.699745 0.689495,-1.519002 1.167586,-1.820575 2.245151,-1.416204 3.499868,3.116188 1.535485,5.546642 -0.902647,1.116817 -1.55303,1.276614 -6.158628,1.513148 l -5.149399,0.264464 -0.631363,2.115709 c -0.347248,1.163641 -1.281206,3.389102 -2.075461,4.945472 l -1.444097,2.829761 3.473741,3.59817 c 4.754552,4.924861 4.719057,5.218291 -1.384044,11.441728 -6.254997,6.37831 -6.891472,6.46254 -11.987087,1.58605 l -3.518831,-3.3675 -1.586783,0.98487 c -0.872729,0.54166 -3.074389,1.48141 -4.892578,2.0883 l -3.305796,1.10344 v 4.21457 c 0,4.39134 -0.807712,6.92346 -2.403869,7.53596 -0.470919,0.18071 -3.913697,0.32856 -7.650621,0.32856 -6.710114,0 -6.808008,-0.0173 -7.890652,-1.39364 z M 57.700119,91.256795 c 5.867394,-2.369947 9.978882,-6.507086 12.53311,-12.611303 1.739235,-4.156508 1.932722,-10.742602 0.441829,-15.039346 l -0.951072,-2.740983 -1.705001,1.005975 c -1.533422,0.904741 -1.852826,0.929281 -3.173979,0.24386 -2.25438,-1.169587 -7.225172,-6.595377 -7.225172,-7.886525 0,-0.623487 0.374048,-1.667641 0.831217,-2.320343 0.803558,-1.147241 0.763958,-1.215419 -1.190086,-2.048961 -2.66006,-1.134706 -9.51992,-1.532892 -12.683727,-0.736237 -6.821891,1.717772 -13.263614,7.14559 -15.534655,13.089554 C 22.04891,80.516934 39.785449,98.49285 57.700119,91.256795 Z M 42.54465,83.479309 c -0.582235,-0.283408 -2.570527,-3.1281 -4.41843,-6.321536 -2.499664,-4.319772 -3.279162,-6.127612 -3.044764,-7.061526 0.344234,-1.37154 5.284634,-10.061949 6.566499,-11.550797 1.019399,-1.184005 4.474029,-1.239925 5.430127,-0.0879 0.917936,1.106044 0.04023,2.545721 -1.679698,2.755172 -0.978795,0.119199 -1.84984,1.17121 -3.781375,4.566982 -1.380298,2.42666 -2.509633,4.663721 -2.509633,4.971246 0,0.307527 1.120964,2.477193 2.491031,4.821481 l 2.491032,4.262342 5.57511,-0.0036 5.575111,-0.0036 2.115711,-3.801335 c 1.16364,-2.090734 2.313084,-4.192057 2.554324,-4.669609 0.64009,-1.267115 -4.532999,-9.901186 -6.069195,-10.1297 -3.002843,-0.446686 -2.272203,-3.607227 0.833904,-3.607227 2.355566,0 3.036772,0.674335 6.144624,6.082665 4.201982,7.312348 4.170759,6.433787 0.463078,13.030275 -1.780443,3.16766 -3.742804,6.113543 -4.3608,6.546406 -1.309233,0.917021 -12.581514,1.073942 -14.376656,0.200137 z M 88.305419,62.776868 c 0.0043,-1.236368 0.305252,-2.835791 0.66881,-3.554272 0.678065,-1.340032 0.984732,-1.527719 6.518521,-3.989481 3.644163,-1.621143 4.336474,-1.481973 7.49312,1.506268 l 1.72952,1.637259 2.22244,-2.222423 2.22241,-2.222424 -2.3025,-2.34607 c -2.59743,-2.6466 -2.60014,-2.720758 -0.30037,-8.246938 2.0429,-4.908922 2.48535,-5.289273 6.15289,-5.289273 h 3.0916 v -3.173565 -3.173564 h -3.0916 c -3.66606,0 -4.10586,-0.377646 -6.15987,-5.289274 -2.2625,-5.410213 -2.25073,-5.749777 0.29978,-8.647305 l 2.23997,-2.544736 -2.19065,-2.190649 -2.19065,-2.19065 -2.33982,2.296356 c -2.704939,2.654692 -3.685608,2.702754 -8.968968,0.43958 -4.369689,-1.871796 -4.837966,-2.473929 -4.837966,-6.2208886 V 4.2011188 l -3.041333,-0.00148 -3.041332,-0.00148 v 2.8505099 c 0,1.9274434 -0.29995,3.2209243 -0.926273,3.9944013 -1.08977,1.345808 -6.476777,3.768458 -9.123348,4.102958 -1.613584,0.203942 -2.11997,-0.04272 -3.94445,-1.921353 l -2.093203,-2.155333 -2.252518,2.210681 -2.252519,2.210679 2.151064,2.33363 c 2.464576,2.673749 2.474425,3.122509 0.188478,8.588782 -2.053998,4.911628 -2.493803,5.289274 -6.159868,5.289274 h -3.091587 v 3.173564 3.173565 h 3.15296 c 2.562379,0 3.354965,0.216827 4.231419,1.157588 0.593153,0.636676 1.085902,1.529241 1.095,1.983479 0.009,0.454237 0.601964,2.015975 1.317483,3.470524 0.715517,1.454551 1.303117,3.111663 1.305777,3.682472 0.0027,0.570809 -0.999984,2.06167 -2.228096,3.313026 l -2.232934,2.275192 2.199885,2.199885 2.199883,2.199883 2.090288,-1.888449 c 2.790053,-2.520645 3.850616,-2.785196 6.276336,-1.565598 1.107455,0.556804 2.9024,1.299831 3.988764,1.651169 2.80959,0.908638 4.107459,2.780122 4.107459,5.922818 v 2.573306 h 2.909101 2.909099 z M 80.628174,51.590676 c -3.310386,-1.046937 -5.109459,-2.145714 -7.543763,-4.607322 -3.287852,-3.324729 -4.567275,-6.295726 -4.799903,-11.146034 -0.355714,-7.416615 2.654501,-12.899267 8.958465,-16.316481 3.149763,-1.707404 3.716281,-1.83503 8.145549,-1.83503 3.981717,0 5.192917,0.212189 7.404981,1.297269 7.370667,3.615516 11.476107,12.083446 9.546227,19.690174 -2.491209,9.81927 -12.562107,15.811013 -21.711556,12.917424 z m 10.430609,-4.393271 c 2.562709,-1.025393 6.374926,-5.24951 7.188598,-7.965308 1.982939,-6.618452 -0.543225,-13.075409 -6.377209,-16.300364 -3.605149,-1.992881 -8.960771,-2.157997 -12.327836,-0.38007 -8.221145,4.341049 -10.162666,14.650245 -4.03618,21.431532 3.963435,4.38705 9.672578,5.566939 15.552627,3.21421 z m -10.80729,-4.765096 c -1.528156,-1.719262 -4.1192,-6.526633 -4.1192,-7.642679 0,-1.117469 3.441707,-7.264187 4.463575,-7.971725 0.730479,-0.505779 8.842209,-0.505779 9.627152,0 1.07224,0.690901 4.42173,6.87536 4.42173,8.16423 0,0.687778 -1.011573,2.789883 -2.24794,4.671346 l -2.247942,3.420843 -4.528813,0.151375 c -3.804927,0.12718 -4.663037,3.65e-4 -5.368562,-0.79339 z m 9.20945,-5.234904 1.341212,-2.43889 -1.297487,-2.321456 c -1.277298,-2.285333 -1.340907,-2.321457 -4.087866,-2.321457 -2.767436,0 -2.800763,0.01957 -4.05306,2.380174 l -1.262678,2.380173 1.262678,2.380173 c 1.248409,2.353274 1.293722,2.380174 4.009336,2.380174 2.71856,0 2.760374,-0.02495 4.087865,-2.438891 z"
       id="path2" /></g></svg>
