<?xml version="1.0" encoding="UTF-8" standalone="no"?>
<!-- Created with Inkscape (http://www.inkscape.org/) -->

<svg
   width="128"
   height="128"
   viewBox="0 0 33.866666 33.866666"
   version="1.1"
   id="svg1"
   xml:space="preserve"
   sodipodi:docname="browser_icon"
   inkscape:version="1.4.2 (ebf0e940d0, 2025-05-08)"
   xmlns:inkscape="http://www.inkscape.org/namespaces/inkscape"
   xmlns:sodipodi="http://sodipodi.sourceforge.net/DTD/sodipodi-0.dtd"
   xmlns="http://www.w3.org/2000/svg"
   xmlns:svg="http://www.w3.org/2000/svg"
   xmlns:rdf="http://www.w3.org/1999/02/22-rdf-syntax-ns#"
   xmlns:cc="http://creativecommons.org/ns#"
   xmlns:dc="http://purl.org/dc/elements/1.1/"><defs
     id="defs1" /><sodipodi:namedview
     id="base"
     pagecolor="#ffffff"
     bordercolor="#000000"
     borderopacity="0.3"
     inkscape:pageopacity="0.0"
     inkscape:pageshadow="2"
     inkscape:zoom="1.979899"
     inkscape:cx="135.1079"
     inkscape:cy="173.4937"
     inkscape:document-units="mm"
     inkscape:showpageshadow="0"
     inkscape:pagecheckerboard="0"
     inkscape:deskcolor="#505050"
     inkscape:window-width="1745"
     inkscape:window-height="958"
     inkscape:window-x="0"
     inkscape:window-y="0"
     inkscape:window-maximized="1"
     inkscape:current-layer="svg1" /><metadata
     id="metadata1"><rdf:RDF><cc:Work
         rdf:about=""><dc:format>image/svg+xml</dc:format><dc:type
           rdf:resource="http://purl.org/dc/dcmitype/StillImage" /></cc:Work></rdf:RDF></metadata><path
     style="fill:#000000;stroke-width:0.79797"
     d="m 0.04447924,31.448482 c 8.2181e-4,-1.306365 0.0620695,-3.016511 0.1360947,-3.800331 L 0.31516833,26.223027 H 1.0158483 1.7165279 L 1.5930138,28.703798 1.4694996,31.18457 2.8147504,29.920201 c 0.7398887,-0.695404 3.2682828,-3.163864 5.6186541,-5.48547 l 4.2734045,-4.221098 0.473329,0.47333 0.473332,0.473329 -5.5912529,5.616748 -5.591251,5.616747 2.5863358,-0.127784 2.5863354,-0.127786 v 0.70619 0.70619 l -1.6153256,0.136545 c -0.8884288,0.07509 -2.5985774,0.136546 -3.8003298,0.136546 H 0.04297755 Z M 27.331459,33.668034 c -1.107267,-0.07746 -1.108431,-0.07832 -1.108431,-0.80368 v -0.726137 l 2.586336,0.127786 2.586336,0.127784 -5.591251,-5.616747 -5.591252,-5.616748 0.473549,-0.473547 0.473547,-0.473549 5.616747,5.591253 5.616748,5.591251 -0.127784,-2.586337 -0.127787,-2.586336 h 0.706191 0.70619 l 0.136543,1.615326 c 0.07509,0.888429 0.136548,2.598578 0.136548,3.80033 v 2.185005 l -2.691902,-0.03905 c -1.480545,-0.02149 -3.190693,-0.07394 -3.800328,-0.116604 z M 7.0391236,8.0131148 1.474073,2.4709671 1.5926327,5.0573027 1.7111914,7.6436385 H 1.0131798 0.31516833 L 0.18057394,6.2185147 C 0.1065474,5.4346967 0.04530452,3.724548 0.04447924,2.4181845 l -0.001491,-2.37520595 2.37520606,0.001491 c 1.3063639,8.2191e-4 3.0165122,0.0620695 3.8003298,0.13609512 L 7.6436402,0.31516659 V 1.0131781 1.7111898 L 5.0573024,1.5922973 2.4709666,1.473403 8.0546587,7.0823253 c 5.5277393,5.5527147 5.5797763,5.6132497 5.1927323,6.0409297 -0.215029,0.237604 -0.447719,0.432007 -0.517088,0.432007 -0.06936,0 -2.630403,-2.493965 -5.6911794,-5.5421472 z M 20.619275,13.123255 C 20.232232,12.695575 20.284269,12.63504 25.812008,7.0823253 L 31.3957,1.473403 28.809364,1.5922977 26.223028,1.7111925 V 1.0131808 0.31516922 l 1.425124,-0.13459428 c 0.783819,-0.0740272 2.493966,-0.13526943 3.80033,-0.13609481 l 2.375207,-0.001491 V 2.2279939 c 0,1.2017525 -0.06144,2.9119008 -0.136548,3.8003298 l -0.136543,1.6153189 h -0.70619 -0.706191 l 0.127787,-2.5863362 0.127784,-2.5863357 -5.567617,5.5421482 c -3.06219,3.0481811 -5.623489,5.5421471 -5.691775,5.5421471 -0.06828,0 -0.300091,-0.194404 -0.515121,-0.432008 z"
     id="path1" /></svg>
