<?xml version="1.0" encoding="UTF-8" standalone="no"?>
<!-- Created with Inkscape (http://www.inkscape.org/) -->

<svg
   width="128"
   height="128"
   viewBox="0 0 33.866667 33.866666"
   version="1.1"
   id="svg1"
   xml:space="preserve"
   inkscape:version="1.4.2 (ebf0e940d0, 2025-05-08)"
   sodipodi:docname="info_icon.svg"
   xmlns:inkscape="http://www.inkscape.org/namespaces/inkscape"
   xmlns:sodipodi="http://sodipodi.sourceforge.net/DTD/sodipodi-0.dtd"
   xmlns="http://www.w3.org/2000/svg"
   xmlns:svg="http://www.w3.org/2000/svg"
   xmlns:rdf="http://www.w3.org/1999/02/22-rdf-syntax-ns#"
   xmlns:cc="http://creativecommons.org/ns#"
   xmlns:dc="http://purl.org/dc/elements/1.1/"><defs
     id="defs1" /><sodipodi:namedview
     id="base"
     pagecolor="#ffffff"
     bordercolor="#000000"
     borderopacity="0.3"
     inkscape:pageopacity="0.0"
     inkscape:pageshadow="2"
     inkscape:zoom="1.4"
     inkscape:cx="30"
     inkscape:cy="113.92857"
     inkscape:document-units="mm"
     inkscape:showpageshadow="0"
     inkscape:pagecheckerboard="0"
     inkscape:deskcolor="#505050"
     inkscape:window-width="1745"
     inkscape:window-height="958"
     inkscape:window-x="0"
     inkscape:window-y="0"
     inkscape:window-maximized="1"
     inkscape:current-layer="svg1" /><metadata
     id="metadata1"><rdf:RDF><cc:Work
         rdf:about=""><dc:format>image/svg+xml</dc:format><dc:type
           rdf:resource="http://purl.org/dc/dcmitype/StillImage" /></cc:Work></rdf:RDF></metadata><path
     style="fill:#000000;stroke-width:1.07115"
     d="m 25.230591,32.463622 c -0.670976,-0.204537 -1.548369,-0.577246 -2.469922,-1.049198 -0.993453,-0.508775 -1.24329,-0.541835 -2.339496,-0.309573 -1.243939,0.263563 -1.923632,0.348435 -3.085977,0.385342 -1.91709,0.06087 -3.758596,-0.23606 -5.581054,-0.899909 C 10.925608,30.288482 9.857938,29.765333 9.78237,29.624133 9.675641,29.424711 9.70376,29.216709 9.85688,29.072858 c 0.188305,-0.176904 0.343733,-0.167881 0.764192,0.04437 0.869264,0.438803 2.185773,0.903979 3.205905,1.132776 1.187672,0.266374 2.248805,0.3626 3.538823,0.32091 1.1508,-0.03719 1.606641,-0.0947 2.958948,-0.373293 1.281512,-0.264011 1.659473,-0.203825 3.019113,0.480759 1.408094,0.708981 2.407219,1.063634 2.79272,0.991313 0.399866,-0.07501 0.712734,-0.440513 0.7263,-0.848476 0.0036,-0.109069 -0.04219,-0.415785 -0.101823,-0.681593 -0.08769,-0.390903 -0.101748,-0.648295 -0.0735,-1.346502 0.05868,-1.450409 0.353746,-2.225251 1.347652,-3.538918 1.219607,-1.611979 1.970616,-3.04541 2.478188,-4.730053 0.385119,-1.278218 0.543009,-2.243407 0.600732,-3.672277 C 31.291412,12.463167 29.260008,8.1034685 25.721873,5.2792914 25.386152,5.0113159 25.069419,4.7168849 25.01802,4.6250003 c -0.08383,-0.14985 -0.0838,-0.184321 2.48e-4,-0.3345674 0.132908,-0.2375954 0.373873,-0.3094243 0.624876,-0.1862689 0.57791,0.2835535 2.261846,1.8567176 3.064768,2.8631624 3.432189,4.3021766 4.273556,9.9653356 2.239182,15.0717126 -0.524708,1.317043 -1.117298,2.337141 -2.195454,3.779306 -0.824572,1.102965 -1.047209,1.638398 -1.157946,2.78481 -0.05437,0.562861 -0.01776,1.05716 0.116924,1.578495 0.116988,0.452854 0.05173,1.136218 -0.139436,1.459964 -0.493251,0.835372 -1.331277,1.129685 -2.340591,0.822008 z M 7.5964178,28.260147 C 6.9178918,27.725587 5.7502358,26.567784 5.1886131,25.872659 2.4676102,22.504854 1.315958,18.110797 2.0383008,13.852844 2.2936943,12.347391 2.6850714,11.160614 3.4108222,9.6909316 4.903711,6.6677562 7.2122872,4.35918 10.235462,2.8662912 c 1.143107,-0.564483 1.874811,-0.8426392 2.882813,-1.0958974 3.184334,-0.80005653 6.346978,-0.6111941 9.266302,0.5533524 1.104831,0.440728 1.425002,0.6103587 1.517912,0.8042092 0.102798,0.2144918 -0.0047,0.4661829 -0.249235,0.5833726 C 23.498498,3.785501 23.436073,3.769888 22.888753,3.5201184 21.097939,2.7028805 19.3848,2.2882951 17.488209,2.2131681 11.998477,1.9957111 6.8809166,4.9695516 4.333047,9.8576994 3.3516241,11.740582 2.8399456,13.695577 2.7587755,15.872597 c -0.168766,4.526376 1.8048812,8.780137 5.4259723,11.694487 0.5377092,0.432763 0.6345197,0.619527 0.4498718,0.86788 -0.087413,0.117573 -0.1898678,0.173763 -0.3404289,0.186705 -0.184634,0.01588 -0.2842496,-0.03573 -0.6977729,-0.361522 z m 5.8828892,-2.953849 c -0.393939,-0.184884 -0.624084,-0.418237 -0.810412,-0.821707 -0.132944,-0.287871 -0.147129,-0.389934 -0.127607,-0.918069 0.02446,-0.66189 0.112567,-0.909241 0.446208,-1.252782 0.331006,-0.340825 0.596877,-0.436062 1.318073,-0.472145 l 0.642648,-0.03215 v -3.243841 -3.243845 l -0.826262,-0.0311 c -1.024116,-0.03855 -1.224852,-0.126586 -1.492133,-0.654413 -0.148864,-0.293978 -0.137481,-1.488817 0.01744,-1.829931 0.224051,-0.493346 0.534897,-0.60578 1.836995,-0.664448 1.116814,-0.05032 1.678819,-0.149649 2.636122,-0.465917 0.644306,-0.212863 0.811632,-0.246295 1.064658,-0.212731 0.528499,0.07011 0.973229,0.389462 1.23957,0.890117 0.107808,0.20265 0.114867,0.46453 0.130749,4.850465 l 0.01678,4.636249 0.595258,5.98e-4 c 0.494249,4.97e-4 0.647263,0.02482 0.901727,0.143312 0.336329,0.156621 0.665071,0.49144 0.815831,0.830912 0.134298,0.302404 0.134298,1.359023 0,1.661427 -0.15076,0.339472 -0.479502,0.674291 -0.815831,0.830912 l -0.306468,0.142714 h -3.488665 -3.488662 z m 7.293851,-0.877567 c 0.428146,-0.280531 0.436335,-1.274257 0.01295,-1.570811 -0.112721,-0.07895 -0.297588,-0.09981 -0.884799,-0.09981 -0.832533,0 -1.079157,-0.05877 -1.180568,-0.281347 -0.05015,-0.110059 -0.06965,-1.487066 -0.06965,-4.919229 v -4.766383 l -0.1567,-0.186228 c -0.226421,-0.269086 -0.464781,-0.293239 -0.977876,-0.09909 -0.810722,0.306766 -1.586918,0.456698 -2.721313,0.525654 -1.49931,0.09114 -1.346502,0.01243 -1.346502,0.693563 0,0.466705 0.01806,0.580659 0.09681,0.61088 0.05325,0.02043 0.420734,0.03715 0.816637,0.03715 0.630857,0 0.752364,0.01721 0.983121,0.139236 0.513805,0.271706 0.49041,0.0679 0.49041,4.272356 0,3.692089 -6.1e-4,3.7102 -0.128676,3.826243 -0.110182,0.09984 -0.256067,0.120991 -1.015105,0.147196 l -0.886429,0.0306 -0.178385,0.199881 c -0.163793,0.183531 -0.178385,0.237851 -0.178385,0.66407 0,0.446296 0.008,0.472211 0.208096,0.672285 l 0.208096,0.208096 h 3.374527 c 3.076367,0 3.388594,-0.0092 3.533735,-0.104319 z M 16.539537,10.162819 C 15.023952,9.6271116 14.480272,7.796337 15.466319,6.548894 c 1.055827,-1.3357211 3.142174,-1.07798 3.882538,0.479637 0.167849,0.3531292 0.189096,0.4597233 0.189096,0.9486714 0,0.488948 -0.02125,0.5955422 -0.189096,0.9486714 -0.386165,0.8124335 -1.115383,1.2935912 -2.010882,1.3268342 -0.353309,0.01312 -0.578866,-0.01228 -0.798438,-0.08989 z M 17.824833,9.2393124 C 18.726179,8.8258387 18.928996,7.672046 18.221336,6.9836528 17.608368,6.3873706 16.572307,6.5042433 16.096422,7.2233533 15.9467,7.4495991 15.927491,7.5353189 15.927491,7.9772024 c 0,0.4418835 0.01921,0.5276031 0.168931,0.7538489 0.165109,0.2494959 0.514473,0.5182113 0.752459,0.5787577 0.274701,0.069887 0.74379,0.036003 0.975952,-0.070497 z"
     id="path1" /></svg>
