<?xml version="1.0" encoding="UTF-8" standalone="no"?>
<!-- Created with Inkscape (http://www.inkscape.org/) -->

<svg
   width="128mm"
   height="128mm"
   viewBox="0 0 128 128"
   version="1.1"
   id="svg1"
   xml:space="preserve"
   inkscape:version="1.4.2 (ebf0e940d0, 2025-05-08)"
   sodipodi:docname="Pictures_icon.svg"
   xmlns:inkscape="http://www.inkscape.org/namespaces/inkscape"
   xmlns:sodipodi="http://sodipodi.sourceforge.net/DTD/sodipodi-0.dtd"
   xmlns="http://www.w3.org/2000/svg"
   xmlns:svg="http://www.w3.org/2000/svg"
   xmlns:rdf="http://www.w3.org/1999/02/22-rdf-syntax-ns#"
   xmlns:cc="http://creativecommons.org/ns#"
   xmlns:dc="http://purl.org/dc/elements/1.1/"><defs
     id="defs1" /><sodipodi:namedview
     id="base"
     pagecolor="#ffffff"
     bordercolor="#000000"
     borderopacity="0.3"
     inkscape:pageopacity="0.0"
     inkscape:pageshadow="2"
     inkscape:zoom="0.35"
     inkscape:cx="400"
     inkscape:cy="558.57143"
     inkscape:document-units="mm"
     inkscape:showpageshadow="0"
     inkscape:pagecheckerboard="0"
     inkscape:deskcolor="#505050"
     inkscape:window-width="1745"
     inkscape:window-height="958"
     inkscape:window-x="0"
     inkscape:window-y="0"
     inkscape:window-maximized="1"
     inkscape:current-layer="svg1" /><metadata
     id="metadata1"><rdf:RDF><cc:Work
         rdf:about=""><dc:format>image/svg+xml</dc:format><dc:type
           rdf:resource="http://purl.org/dc/dcmitype/StillImage" /></cc:Work></rdf:RDF></metadata><path
     style="fill:#000000;stroke:#e72525;stroke-opacity:0;fill-opacity:1"
     d="M 13.844315,111.43226 C 11.797422,110.94985 9.4549675,109.11721 8.4823937,107.23733 7.4833159,105.30622 7.505239,106.11535 7.505239,71.172852 c 0,-34.961353 -0.022554,-34.132146 0.9811246,-36.072158 0.2161577,-0.417812 0.879929,-1.274499 1.4750475,-1.903749 1.5150869,-1.601981 3.2298839,-2.341115 5.8149559,-2.506437 l 1.986328,-0.127031 0.110352,-2.427735 c 0.09039,-1.988579 0.197687,-2.568146 0.59316,-3.20396 0.66833,-1.074493 1.335477,-1.65828 2.496684,-2.184721 0.888714,-0.402905 1.443084,-0.450767 5.271269,-0.455105 5.128133,-0.0058 5.683889,0.120902 7.205935,1.642949 1.341747,1.341746 1.647796,2.240476 1.647796,4.838844 l 0,1.911013 3.576963,-0.06064 3.576963,-0.06064 1.243836,-4.965821 c 0.68411,-2.731201 1.410149,-5.287024 1.613419,-5.679607 0.538275,-1.039588 1.757234,-2.179131 3.072856,-2.872659 l 1.151314,-0.606913 H 64 78.676758 l 1.151314,0.606913 c 1.315622,0.693528 2.534581,1.833071 3.072856,2.872659 0.20327,0.392583 0.929309,2.948406 1.613419,5.679607 l 1.243836,4.965821 3.576963,0.06064 3.576963,0.06064 0,-1.911013 c 0,-2.598368 0.306049,-3.497098 1.647796,-4.838844 1.522046,-1.522047 2.077802,-1.648759 7.205935,-1.642949 3.82819,0.0043 4.38255,0.0522 5.27127,0.455105 1.16121,0.526441 1.82835,1.110228 2.49668,2.184721 0.39548,0.635814 0.50277,1.215381 0.59316,3.20396 l 0.11035,2.427735 1.98633,0.127031 c 2.58508,0.165322 4.29987,0.904456 5.81496,2.506437 1.23274,1.303441 1.74218,2.191008 2.16212,3.766922 0.43345,1.626656 0.43253,66.498373 -9.8e-4,68.340163 -0.57274,2.43332 -2.33707,4.54517 -4.73725,5.67033 l -1.25252,0.58716 -41.409074,0.058 c -40.276337,0.0564 -41.423122,0.0466 -41.922559,-0.35779 -0.712109,-0.57663 -0.713981,-1.91211 -0.0035,-2.48743 0.494164,-0.40015 1.775135,-0.41301 41.260449,-0.4142 28.81899,-8.7e-4 41.00893,-0.072 41.63326,-0.24274 1.14269,-0.31261 2.78286,-1.98135 3.14919,-3.20406 0.20826,-0.69512 0.27171,-6.789061 0.27171,-26.096621 V 53.626953 l -5.19655,0 -5.19656,0 -0.56639,-0.566388 c -0.45686,-0.456861 -0.54015,-0.702265 -0.4307,-1.269043 0.27505,-1.424447 0.48898,-1.475116 6.22813,-1.475116 l 5.16207,0 -0.001,-6.01416 c -7.3e-4,-3.558785 -0.0968,-6.358433 -0.23539,-6.857418 -0.29915,-1.077302 -1.60762,-2.531662 -2.74287,-3.048696 -0.8456,-0.385116 -2.96194,-0.402063 -50.20996,-0.402063 -47.248015,0 -49.364359,0.01695 -50.209961,0.402063 -1.135253,0.517034 -2.443721,1.971394 -2.742871,3.048696 -0.13856,0.498985 -0.234662,3.298633 -0.23539,6.857418 l -0.0012,6.01416 h 17.657151 17.65715 l 1.8199,-1.230122 c 4.599955,-3.10924 9.286705,-4.638697 14.951736,-4.879297 6.222135,-0.264261 11.965276,1.368869 17.158768,4.879297 l 1.8199,1.230122 h 9.339167 c 9.093581,0 9.351871,0.01183 9.822191,0.450004 0.62741,0.584521 0.64853,1.812223 0.0416,2.419137 -0.42441,0.424406 -0.73568,0.441406 -8.082255,0.441406 l -7.640845,0 0.760471,0.937988 c 4.198522,5.17859 6.392817,11.312124 6.415285,17.932129 0.02699,7.953395 -2.744449,14.713299 -8.330266,20.318586 -4.139223,4.15365 -8.821967,6.689174 -14.691879,7.955074 -2.609367,0.56274 -8.407915,0.56274 -11.017282,0 C 46.708947,98.22974 37.909056,89.231525 35.817755,77.586134 c -0.527686,-2.938412 -0.47075,-7.57939 0.128049,-10.43751 0.974919,-4.653382 3.016507,-8.979364 5.938695,-12.583683 L 42.64497,53.626953 H 26.727758 10.810547 v 25.062425 c 0,18.461584 0.06828,25.333602 0.259259,26.092032 0.32955,1.30876 1.883962,2.92312 3.187245,3.31015 0.598333,0.17768 2.605232,0.26977 5.879358,0.26977 4.528007,0 5.016383,0.0368 5.480938,0.41297 0.708658,0.57384 0.708658,1.91077 0,2.4846 -0.468032,0.37899 -0.939306,0.41115 -5.727247,0.39081 -2.869486,-0.0122 -5.59009,-0.11005 -6.045785,-0.21745 z M 66.874931,97.759632 C 78.093925,96.387998 86.934844,88.006115 88.861587,76.91456 89.372432,73.973812 89.17596,69.221904 88.425468,66.366523 87.307208,62.111902 85.010919,58.106715 81.876953,54.944608 78.077488,51.111024 73.299695,48.652972 67.966594,47.788084 54.488597,45.602308 41.541891,54.850926 39.180277,68.351898 c -0.690585,3.947965 -0.325766,8.547969 0.989207,12.4729 1.193933,3.56365 2.889084,6.336459 5.613093,9.181504 2.355967,2.460649 4.160905,3.793782 7.071915,5.223338 4.693352,2.304841 9.204205,3.118825 14.020439,2.529992 z M 60.137695,90.573163 C 53.435106,89.080496 48.229599,84.104025 46.308612,77.352539 c -0.650056,-2.284678 -0.70976,-6.731033 -0.119664,-8.911772 0.879543,-3.250417 2.155262,-5.642503 4.208854,-7.891977 4.110189,-4.502239 9.556191,-6.614968 15.49881,-6.012625 2.860649,0.289954 6.900571,1.752204 7.75915,2.808425 0.401523,0.493953 0.3385,1.676539 -0.110352,2.070685 -0.757828,0.665463 -1.258776,0.639076 -2.98192,-0.157065 -2.536636,-1.171998 -4.23625,-1.497907 -7.225599,-1.385541 -4.173205,0.156866 -6.948423,1.384873 -9.977568,4.414978 -1.388247,1.388688 -1.891046,2.091095 -2.685732,3.751954 -1.288799,2.693532 -1.574858,3.969329 -1.546863,6.898876 0.01886,1.973643 0.130734,2.757982 0.598115,4.193359 2.051832,6.301386 7.746044,10.483398 14.274157,10.483398 4.584073,0 9.139486,-2.235637 11.819206,-5.800453 2.154799,-2.866516 3.059119,-5.51605 3.067261,-8.986656 0.0077,-3.268765 -0.746299,-5.832297 -2.535325,-8.620251 -0.773272,-1.205041 -0.813142,-1.711498 -0.196451,-2.495493 1.016484,-1.29225 2.318548,-0.57616 3.81007,2.095406 5.708749,10.225327 0.349832,23.206695 -10.928095,26.47207 -2.182462,0.631903 -6.708675,0.781085 -8.898971,0.293306 z M 61.417737,80.375499 C 55.555812,78.28345 53.975347,70.85295 58.522682,66.764505 60.33551,65.134617 61.321858,64.776205 64,64.774198 c 2.131013,-0.0016 2.420983,0.05071 3.605583,0.650389 3.353099,1.69744 5.160828,5.600995 4.246534,9.169835 -0.939997,3.669164 -3.754738,5.958248 -7.521062,6.116491 -1.310076,0.05504 -2.061742,-0.0315 -2.913318,-0.335414 z m 5.276365,-3.693112 c 1.099303,-0.762028 2.161367,-2.635706 2.161367,-3.813056 0,-2.78423 -2.119333,-4.940815 -4.855469,-4.940815 -2.729675,0 -4.861286,2.163191 -4.853313,4.925215 0.0031,1.071828 0.929528,2.910711 1.80149,3.57579 1.137766,0.867816 1.706059,1.033786 3.31819,0.969078 1.226054,-0.04921 1.642937,-0.172197 2.427735,-0.716212 z M 31.744816,28.583195 c -0.06623,-1.591393 -0.152706,-1.9448 -0.580536,-2.372559 -0.487952,-0.487869 -0.626226,-0.502628 -4.709051,-0.502628 h -4.206338 l -0.532649,0.619241 c -0.466398,0.54222 -0.532648,0.837317 -0.532648,2.372558 v 1.753318 h 5.319522 5.319523 z m 49.776825,-1.164738 c -1.326057,-5.383939 -1.460845,-5.819644 -1.997721,-6.457685 -1.137675,-1.35205 -1.035402,-1.343828 -15.854975,-1.27462 l -13.46289,0.06287 -0.796215,0.495163 c -0.441829,0.274771 -1.008494,0.913281 -1.273153,1.43457 -0.386088,0.760462 -2.234343,7.8575 -2.234343,8.579561 0,0.111032 7.819623,0.194808 18.183366,0.194808 H 82.269076 Z M 59.916992,26.667022 C 58.754172,26.031009 58.54564,24.602958 59.50535,23.84805 60.043996,23.42435 60.375381,23.390625 64,23.390625 c 3.624619,0 3.956004,0.03373 4.49465,0.457425 0.943728,0.742336 0.777452,2.184931 -0.317076,2.750933 -0.771872,0.399151 -7.553093,0.455005 -8.260582,0.06804 z m 46.899418,1.929746 c 0,-1.801965 -0.0199,-1.8731 -0.67905,-2.427735 -0.67361,-0.566812 -0.70973,-0.571377 -4.52093,-0.571377 h -3.841888 l -0.718205,0.641716 c -0.680513,0.608038 -0.722461,0.735447 -0.799312,2.427734 l -0.08111,1.786019 h 5.320242 5.32025 z M 20.790861,67.73817 C 19.607432,67.504962 18.71356,66.877419 18.054134,65.816852 17.592626,65.0746 17.541992,64.731319 17.541992,62.344727 c 0,-3.186625 0.307858,-4.01879 1.848107,-4.995587 0.952838,-0.604272 1.113143,-0.632343 3.611122,-0.632343 2.129634,0 2.765755,0.07744 3.432864,0.417921 1.761442,0.899004 2.255228,2.029451 2.248568,5.147744 -0.0055,2.583727 -0.357151,3.667798 -1.502226,4.631315 -1.128798,0.949821 -3.923384,1.310383 -6.389566,0.824393 z m 4.452128,-3.645869 c 0.24415,-0.636247 0.144674,-3.52456 -0.13088,-3.800114 -0.163263,-0.163263 -0.964463,-0.264843 -2.088914,-0.264843 -1.577526,0 -1.854951,0.0577 -2.052539,0.426897 -0.318326,0.594798 -0.290962,3.394984 0.03637,3.722322 0.165368,0.165367 0.985465,0.264843 2.183419,0.264843 1.545892,0 1.944597,-0.06781 2.052539,-0.349105 z M 88.387695,47.401679 c -1.087718,-0.380214 -2.0228,-1.207359 -2.515493,-2.225125 -0.372536,-0.769559 -0.463043,-1.368928 -0.459152,-3.040669 0.0069,-2.977997 0.715045,-4.334336 2.69469,-5.161484 0.695758,-0.290707 2.260198,-0.341589 10.502628,-0.341589 6.832102,0 9.906092,0.07622 10.435312,0.258738 1.97948,0.682689 2.88772,2.095067 3.02353,4.70184 0.0524,1.00604 -0.0231,2.198171 -0.17488,2.760239 -0.34048,1.261005 -1.76901,2.730262 -2.98197,3.066998 -1.17393,0.325899 -19.586755,0.308901 -20.524665,-0.01895 z m 20.011435,-3.409518 c 0.54111,-0.489703 0.58233,-3.176441 0.0568,-3.701982 -0.30447,-0.304468 -1.4984,-0.34682 -9.777153,-0.34682 -7.04043,0 -9.497448,0.06712 -9.695173,0.264844 -0.160427,0.160427 -0.264844,0.93923 -0.264844,1.975361 0,1.396231 0.07097,1.751852 0.38623,1.935477 0.245151,0.142787 3.765793,0.22741 9.638384,0.23167 8.305446,0.006 9.293456,-0.03066 9.655766,-0.35855 z M 18.0348,43.309082 c -0.652765,-0.724339 -0.684608,-1.480794 -0.09137,-2.170479 0.493811,-0.574089 0.699292,-0.64034 2.225008,-0.717385 2.066883,-0.104373 3.115562,0.07763 3.675899,0.637967 0.557074,0.557074 0.5475,1.542991 -0.02091,2.153105 -0.411672,0.441878 -0.662554,0.483022 -2.945286,0.483022 -2.096728,0 -2.550877,-0.06169 -2.843348,-0.38623 z m 10.981177,-0.05802 c -0.55135,-0.609235 -0.512454,-1.676998 0.08275,-2.27162 0.440637,-0.440206 0.707117,-0.484321 2.925608,-0.484321 2.298924,0 2.465328,0.03029 2.862536,0.521033 0.546819,0.675585 0.537984,1.68009 -0.01968,2.237756 -0.389529,0.38953 -0.735677,0.441406 -2.945285,0.441406 -2.22894,0 -2.548027,-0.04878 -2.905925,-0.444254 z"
     id="path1" /></svg>
