<?xml version="1.0" encoding="UTF-8" standalone="no"?>
<!-- Created with Inkscape (http://www.inkscape.org/) -->

<svg
   width="128"
   height="128"
   viewBox="0 0 33.866666 33.866666"
   version="1.1"
   id="svg1"
   xml:space="preserve"
   inkscape:version="1.2.2 (b0a8486541, 2022-12-01)"
   sodipodi:docname="browser_icon.svg"
   xmlns:inkscape="http://www.inkscape.org/namespaces/inkscape"
   xmlns:sodipodi="http://sodipodi.sourceforge.net/DTD/sodipodi-0.dtd"
   xmlns="http://www.w3.org/2000/svg"
   xmlns:svg="http://www.w3.org/2000/svg"
   xmlns:rdf="http://www.w3.org/1999/02/22-rdf-syntax-ns#"
   xmlns:cc="http://creativecommons.org/ns#"
   xmlns:dc="http://purl.org/dc/elements/1.1/"><defs
     id="defs1" /><sodipodi:namedview
     id="base"
     pagecolor="#ffffff"
     bordercolor="#000000"
     borderopacity="0.3"
     inkscape:pageopacity="0.0"
     inkscape:pageshadow="2"
     inkscape:zoom="1.979899"
     inkscape:cx="53.790623"
     inkscape:cy="173.99877"
     inkscape:document-units="mm"
     inkscape:showpageshadow="0"
     inkscape:pagecheckerboard="0"
     inkscape:deskcolor="#505050"
     inkscape:window-width="1920"
     inkscape:window-height="997"
     inkscape:window-x="1920"
     inkscape:window-y="0"
     inkscape:window-maximized="1"
     inkscape:current-layer="svg1"
     showgrid="false" /><metadata
     id="metadata1"><rdf:RDF><cc:Work
         rdf:about=""><dc:format>image/svg+xml</dc:format><dc:type
           rdf:resource="http://purl.org/dc/dcmitype/StillImage" /></cc:Work></rdf:RDF></metadata><path
     style="fill:#00549f;stroke-width:0.538548;fill-opacity:1"
     d="M 13.797653,32.281276 C 7.0591191,31.299987 1.7530841,26.128539 0.60472139,19.42298 0.35284399,17.952207 0.49943839,14.550587 0.87650549,13.116456 2.4314653,7.2023387 6.94777,2.9552439 13.082327,1.6382029 c 1.411913,-0.3031273 4.753749,-0.2305515 6.227904,0.1352524 5.234834,1.298995 9.203799,4.7322481 11.076976,9.5818567 0.515978,1.335856 1.181578,4.270879 0.968542,4.270879 -0.02976,0 -0.379126,-0.09652 -0.776364,-0.214486 -0.71098,-0.211138 -0.723828,-0.225034 -0.823396,-0.890567 -0.144042,-0.962808 -0.748875,-2.81592 -1.232198,-3.775258 L 28.111009,9.9265576 h -2.196526 -2.196526 l 0.337288,0.6055864 c 0.372341,0.668524 1.126179,2.530371 1.262658,3.118543 l 0.08715,0.375595 -0.822735,-0.207247 -0.822733,-0.207248 -0.316585,-0.882739 C 23.268881,12.243542 22.884659,11.430396 22.589177,10.922056 L 22.051934,9.997803 19.383889,9.9590362 16.715844,9.9202693 v 1.1863647 c 0,1.170019 -0.0069,1.19306 -0.501471,1.672409 -0.560667,0.543419 -0.84685,1.367767 -0.702694,2.024103 0.05261,0.239539 0.34507,0.977948 0.649911,1.640908 l 0.554254,1.205383 v 3.120611 3.120611 l 1.389285,0.0033 1.389286,0.0033 0.311523,0.709096 0.311522,0.709134 h -1.700808 -1.700808 v 2.306512 2.306513 l 0.463095,-0.415054 c 0.254702,-0.228293 1.113682,-1.050055 1.908844,-1.826152 l 1.445748,-1.411085 0.297647,0.672878 c 0.21445,0.484801 0.259224,0.74467 0.160188,0.929722 -0.0756,0.141263 -0.763948,0.845099 -1.529658,1.56408 l -1.392201,1.307237 0.641209,-0.09801 c 0.352664,-0.0539 1.243893,-0.312543 1.98051,-0.574746 l 1.339302,-0.476732 0.387122,0.315381 c 0.212918,0.173459 0.507925,0.389601 0.65557,0.480315 0.238401,0.146473 0.161332,0.214171 -0.688509,0.604803 -2.593411,1.192069 -5.85374,1.678073 -8.587058,1.280037 z M 11.905889,28.91315 C 10.907161,27.913761 9.8030275,26.695465 9.4522588,26.205824 L 8.8144976,25.315568 H 6.7755425 c -1.8981235,0 -2.0296626,0.01722 -1.9044112,0.249359 0.2897364,0.536983 2.4326676,2.462935 3.51142,3.155878 1.4230617,0.914111 4.0910627,1.962308 5.0907377,2.000038 0.147932,0.0056 -0.486279,-0.725857 -1.5674,-1.807693 z m 3.195059,-3.550085 c -0.03021,-0.03022 -1.073854,-0.03724 -2.319197,-0.0156 l -2.264259,0.03934 2.279854,2.279854 2.279854,2.279853 0.03934,-2.264259 c 0.02164,-1.245343 0.01462,-2.288981 -0.0156,-2.319196 z M 7.3128193,22.71511 C 6.7077617,21.422135 6.2383051,19.796158 6.0889824,18.476319 L 5.992221,17.621062 H 3.9305179 1.8688148 L 1.970624,18.51163 c 0.1405847,1.229767 0.5588777,2.81161 1.0203049,3.858448 0.7223629,1.638824 0.5021803,1.520581 2.8315111,1.520581 H 7.8629257 Z M 15.148445,20.75586 V 17.621062 H 11.299508 7.4505717 l 0.087585,0.605586 c 0.2667751,1.844554 0.859053,3.605949 1.6883477,5.021032 l 0.3768107,0.642979 H 12.37588 15.148445 Z M 6.1656661,15.234341 c 0.2089492,-1.211464 0.8647757,-3.189131 1.4267356,-4.302367 0.2373254,-0.470139 0.431501,-0.888688 0.431501,-0.930108 0,-0.04142 -0.9603351,-0.075309 -2.1340774,-0.075309 -2.4675843,0 -2.2430082,-0.130101 -2.9853068,1.7294376 -0.4719596,1.182311 -0.7897504,2.436391 -0.9428807,3.720837 l -0.097678,0.819322 H 3.9318687 5.9997762 Z M 15.148445,13.061356 V 9.9265576 H 12.452284 9.7561235 L 8.9618361,11.52958 c -0.7651796,1.544274 -1.3654059,3.417786 -1.3654059,4.261894 v 0.40468 h 3.7760068 3.776008 z M 9.9693458,7.2548543 C 10.503759,6.5691172 11.625653,5.3263164 12.462443,4.4930747 l 1.521435,-1.5149848 -1.171928,0.256099 c -2.117204,0.4626684 -4.0544636,1.4085476 -5.821813,2.842537 -0.9190712,0.745715 -2.2435234,2.129778 -2.2435234,2.3445002 0,0.044232 0.9564909,0.080423 2.1255357,0.080423 h 2.125535 z m 5.1749852,-1.0686812 -0.0041,-2.3154762 -1.815986,1.852381 C 12.325452,6.7418873 11.361124,7.7838516 11.181294,8.038554 l -0.326966,0.4630952 h 2.147066 2.147066 z m 5.395116,1.7128023 C 19.876484,7.0579365 17.285596,4.3793282 16.97351,4.2123055 16.730088,4.08203 16.715844,4.1967826 16.715844,6.2880279 v 2.2136213 h 2.149336 2.149336 z m 6.453711,0.3533148 C 26.718679,7.7435849 24.590618,5.8118291 23.597876,5.1702096 22.013068,4.1459319 19.278121,3.0869973 18.217492,3.0869973 c -0.174264,0 0.350771,0.6304075 1.576503,1.8928992 1.01078,1.0410945 2.094266,2.2580085 2.407746,2.7042531 l 0.569964,0.8113539 2.177998,0.00308 c 2.031052,0.00286 2.168922,-0.013751 2.043455,-0.2462863 z M 23.490526,28.842216 c -0.236728,-0.207508 -1.196879,-2.146682 -2.721809,-5.497123 -3.646152,-8.010999 -4.051987,-9.087701 -3.596902,-9.542785 0.270717,-0.270718 0.843172,-0.206299 3.00668,0.338344 3.105726,0.781837 11.947843,3.177889 12.395131,3.358854 0.505365,0.204462 0.813647,0.64313 0.813647,1.157774 0,0.77002 -0.377707,1.199333 -1.852544,2.105652 -0.78361,0.481546 -1.420564,0.917404 -1.415452,0.968574 0.0051,0.05117 0.68365,0.663781 1.507864,1.361357 0.824215,0.697576 1.55788,1.424313 1.630367,1.614969 0.186056,0.489363 -0.114526,1.043831 -1.237092,2.282003 -1.379274,1.521316 -1.358896,1.525503 -4.196008,-0.861988 l -0.931913,-0.784225 -0.558048,1.43194 c -0.674529,1.730829 -1.215839,2.387259 -1.968599,2.387259 -0.325078,0 -0.641992,-0.116077 -0.875322,-0.320605 z m 1.842815,-3.170421 c 0.380602,-0.94044 0.753266,-1.790042 0.828144,-1.888004 0.306049,-0.400407 0.800316,-0.143446 2.531959,1.31632 0.975022,0.821938 1.811922,1.479177 1.859777,1.460531 0.178787,-0.06966 1.277966,-1.424027 1.237517,-1.524822 -0.02316,-0.05771 -0.7795,-0.73717 -1.680755,-1.509903 -0.901254,-0.772733 -1.687315,-1.471661 -1.746802,-1.553173 -0.32572,-0.446316 -0.01058,-0.788288 1.737763,-1.885697 0.974652,-0.611778 1.792592,-1.177637 1.817643,-1.257468 0.04163,-0.132669 -13.040202,-3.703536 -13.153351,-3.590388 -0.02672,0.02672 1.210857,2.881318 2.75017,6.343552 2.342257,5.268226 2.825433,6.254519 2.962341,6.046957 0.08998,-0.136409 0.474993,-1.017465 0.855594,-1.957905 z"
     id="path1" /></svg>
