<?xml version="1.0" encoding="UTF-8" standalone="no"?>
<!-- Created with Inkscape (http://www.inkscape.org/) -->

<svg
   width="128"
   height="128"
   viewBox="0 0 33.866666 33.866666"
   version="1.1"
   id="svg1"
   xml:space="preserve"
   sodipodi:docname="mail_icon.svg"
   inkscape:version="1.2.2 (b0a8486541, 2022-12-01)"
   xmlns:inkscape="http://www.inkscape.org/namespaces/inkscape"
   xmlns:sodipodi="http://sodipodi.sourceforge.net/DTD/sodipodi-0.dtd"
   xmlns="http://www.w3.org/2000/svg"
   xmlns:svg="http://www.w3.org/2000/svg"
   xmlns:rdf="http://www.w3.org/1999/02/22-rdf-syntax-ns#"
   xmlns:cc="http://creativecommons.org/ns#"
   xmlns:dc="http://purl.org/dc/elements/1.1/"><defs
     id="defs1" /><sodipodi:namedview
     id="base"
     pagecolor="#ffffff"
     bordercolor="#000000"
     borderopacity="0.3"
     inkscape:pageopacity="0.0"
     inkscape:pageshadow="2"
     inkscape:zoom="1.979899"
     inkscape:cx="-47.224631"
     inkscape:cy="161.87694"
     inkscape:document-units="mm"
     inkscape:showpageshadow="0"
     inkscape:pagecheckerboard="0"
     inkscape:deskcolor="#505050"
     inkscape:window-width="1920"
     inkscape:window-height="997"
     inkscape:window-x="1920"
     inkscape:window-y="0"
     inkscape:window-maximized="1"
     inkscape:current-layer="svg1"
     showgrid="false" /><metadata
     id="metadata1"><rdf:RDF><cc:Work
         rdf:about=""><dc:format>image/svg+xml</dc:format><dc:type
           rdf:resource="http://purl.org/dc/dcmitype/StillImage" /></cc:Work></rdf:RDF></metadata><path
     style="fill:#00549f;stroke-width:0.963341;fill-opacity:1"
     d="M 2.1473591,26.249769 C 1.7037895,26.18919 1.4306046,26.020776 1.2656519,25.706211 L 1.130556,25.448583 V 16.979066 8.5095485 L 1.3067413,8.2098418 c 0.130804,-0.2225092 0.2626318,-0.3427849 0.5118,-0.4669507 L 2.1541561,7.5756473 H 16.924981 c 13.186361,0 14.796418,0.010693 15.009404,0.099684 0.307784,0.1286006 0.510596,0.3207394 0.673062,0.6376434 0.128928,0.2514831 0.130337,0.3459064 0.128271,8.5983313 -0.0014,5.766086 -0.02337,8.399066 -0.07098,8.522105 -0.120086,0.310367 -0.331378,0.540877 -0.640754,0.699037 l -0.300111,0.153426 -14.620386,0.0049 c -8.0412121,0.0026 -14.77147,-0.0158 -14.9561289,-0.04102 z M 31.557487,25.715482 c -0.01476,-0.01261 -1.447009,-1.118976 -3.182778,-2.458585 -1.735768,-1.339609 -4.097894,-3.163743 -5.249169,-4.053632 -1.151274,-0.889888 -2.123636,-1.63656 -2.160804,-1.65927 -0.03717,-0.02271 -0.776237,0.51095 -1.642378,1.185913 -0.86614,0.674963 -1.705049,1.286206 -1.864241,1.358319 -0.367054,0.166273 -0.767108,0.160978 -1.103981,-0.0146 -0.229157,-0.119444 -2.025948,-1.485971 -2.898582,-2.204481 -0.164323,-0.135301 -0.368472,-0.246002 -0.453663,-0.246002 -0.10032,0 -0.528326,0.29048 -1.214794,0.824461 -0.582946,0.453454 -2.5380408,1.951092 -4.3446568,3.328085 -3.2589784,2.483975 -5.055948,3.882659 -5.055948,3.935331 0,0.01507 6.5695121,0.02741 14.5989158,0.02741 8.029403,0 14.58684,-0.01032 14.572079,-0.02294 z M 2.8695445,24.642654 c 0.5313576,-0.41056 2.2848377,-1.7582 3.8966224,-2.994756 5.4260721,-4.162867 5.7369511,-4.404971 5.7224261,-4.456464 -0.008,-0.02825 -2.450852,-1.924362 -5.4286337,-4.213599 L 1.6458118,8.8155873 1.6294661,17.09593 c -0.016646,8.432213 -0.015668,8.471666 0.2064916,8.334775 0.037116,-0.02287 0.5022292,-0.377493 1.0335868,-0.788051 z M 32.142518,17.168486 c 0,-6.377081 -0.01745,-8.2371105 -0.07692,-8.2003511 -0.07128,0.044054 -4.657748,3.5644391 -6.492585,4.9834431 -0.442799,0.342446 -1.568323,1.210567 -2.501165,1.929156 -0.932843,0.718589 -1.671914,1.328723 -1.642379,1.355851 0.02954,0.02713 0.966669,0.753122 2.08252,1.613317 1.115851,0.860196 2.521533,1.945158 3.123738,2.411028 0.602206,0.46587 1.656353,1.279861 2.342549,1.808868 0.686196,0.529007 1.64264,1.271845 2.12543,1.650752 0.48279,0.378905 0.91403,0.690474 0.95831,0.692374 0.06401,0.0028 0.08051,-1.687219 0.08051,-8.244438 z M 17.467945,19.48655 c 0.118362,-0.08269 1.012242,-0.7623 1.986397,-1.510241 0.974156,-0.74794 2.94501,-2.258055 4.379675,-3.355811 1.434665,-1.097755 3.550435,-2.716758 4.70171,-3.597784 2.608462,-1.9961555 3.445773,-2.6668467 3.445773,-2.7600831 0,-0.040113 -0.115932,-0.093491 -0.257627,-0.1186183 -0.319947,-0.056737 -29.2965869,-0.053491 -29.5620188,0.00331 -0.105839,0.02265 -0.1990871,0.084433 -0.2072181,0.1372954 -0.0085,0.055242 0.2231901,0.2741435 0.5448245,0.5147596 0.3077845,0.2302549 0.9806956,0.7506031 1.4953578,1.1563295 1.7529049,1.3818769 12.1414386,9.3622549 12.4323956,9.5504549 0.347439,0.224734 0.700505,0.21808 1.040731,-0.01961 z"
     id="path1" /></svg>
