<?xml version="1.0" encoding="UTF-8" standalone="no"?>
<!-- Created with Inkscape (http://www.inkscape.org/) -->

<svg
   width="64mm"
   height="64mm"
   viewBox="0 0 64 64"
   version="1.1"
   id="svg1"
   xml:space="preserve"
   inkscape:version="1.2.2 (b0a8486541, 2022-12-01)"
   sodipodi:docname="music_player.svg"
   xmlns:inkscape="http://www.inkscape.org/namespaces/inkscape"
   xmlns:sodipodi="http://sodipodi.sourceforge.net/DTD/sodipodi-0.dtd"
   xmlns="http://www.w3.org/2000/svg"
   xmlns:svg="http://www.w3.org/2000/svg"
   xmlns:rdf="http://www.w3.org/1999/02/22-rdf-syntax-ns#"
   xmlns:cc="http://creativecommons.org/ns#"
   xmlns:dc="http://purl.org/dc/elements/1.1/"><defs
     id="defs1" /><sodipodi:namedview
     id="base"
     pagecolor="#ffffff"
     bordercolor="#000000"
     borderopacity="0.3"
     inkscape:pageopacity="0.0"
     inkscape:pageshadow="2"
     inkscape:zoom="1.979899"
     inkscape:cx="57.831233"
     inkscape:cy="70.45814"
     inkscape:document-units="mm"
     inkscape:showpageshadow="0"
     inkscape:pagecheckerboard="0"
     inkscape:deskcolor="#505050"
     inkscape:window-width="1920"
     inkscape:window-height="997"
     inkscape:window-x="1920"
     inkscape:window-y="0"
     inkscape:window-maximized="1"
     inkscape:current-layer="svg1"
     showgrid="false" /><metadata
     id="metadata1"><rdf:RDF><cc:Work
         rdf:about=""><dc:format>image/svg+xml</dc:format><dc:type
           rdf:resource="http://purl.org/dc/dcmitype/StillImage" /></cc:Work></rdf:RDF></metadata><path
     style="fill:#0c2a47;stroke-width:0.647195;fill-opacity:1"
     d="m 31.420509,55.854178 -0.45444,-0.357459 0.04608,-12.499167 c 0.04478,-12.147187 0.05541,-12.505999 0.378461,-12.742166 0.486016,-0.355323 1.0658,-0.297114 1.370266,0.137567 0.235255,0.335875 0.266561,1.825143 0.266561,12.679324 v 12.298751 l -0.420308,0.420308 c -0.511472,0.511477 -0.609659,0.516675 -1.186607,0.06283 z M 7.2060217,53.186116 C 6.8926782,53.031683 6.4507994,52.581785 6.2116292,52.17367 L 5.7811791,51.439163 5.8440993,41.11105 c 0.07049,-11.571015 0.077837,-11.655623 1.342199,-15.457137 1.315793,-3.956141 3.3115687,-7.17782 6.3201087,-10.202207 3.748982,-3.76874 8.383971,-6.2546427 13.613343,-7.3012985 2.38835,-0.4780317 7.607978,-0.4387857 10.052097,0.075578 10.526892,2.2153801 18.399156,10.1847471 20.552076,20.8055851 0.380201,1.875643 0.389721,2.177786 0.389721,12.368069 v 10.445462 l -0.398782,0.559106 c -0.606001,0.849624 -1.18205,1.067645 -2.820887,1.067645 -1.210682,0 -1.530914,-0.06162 -2.020542,-0.388698 -1.203317,-0.803869 -1.180607,-0.61096 -1.180906,-10.030889 -3.04e-4,-9.537269 -0.03294,-9.280488 1.278528,-10.049078 0.571324,-0.334819 0.957421,-0.422255 1.864588,-0.422255 h 1.144063 l -0.104295,-0.4709 C 54.530574,26.037894 51.882815,21.546743 47.48884,17.884661 39.852451,11.520234 29.146505,10.47211 20.382152,15.230876 14.089015,18.647853 9.7534202,24.617256 8.1227791,32.110033 l -0.1024824,0.4709 h 1.0622395 c 1.3890568,0 2.3473228,0.453864 2.8512148,1.350417 0.370477,0.659178 0.373994,0.744976 0.373731,9.118352 -2.97e-4,9.422785 0.02245,9.229565 -1.180907,10.033453 -0.48706,0.325377 -0.807849,0.388064 -1.9692263,0.384802 -0.9273554,-0.0026 -1.5743731,-0.09607 -1.9513251,-0.281841 z M 24.808049,51.93072 c -0.333313,-0.333311 -0.342474,-0.570788 -0.342474,-8.877793 0,-8.051398 0.01776,-8.551376 0.313147,-8.818706 0.366298,-0.33149 1.071158,-0.371727 1.364975,-0.0779 0.154422,0.15442 0.205485,2.36472 0.205485,8.894614 v 8.689137 l -0.380576,0.266567 c -0.502977,0.3523 -0.748404,0.336243 -1.160557,-0.0759 z m 13.222807,0.07553 -0.380034,-0.266184 V 43.05093 c 0,-6.529895 0.05106,-8.740195 0.205485,-8.894615 0.307075,-0.307066 1.0729,-0.247951 1.394731,0.107661 0.255661,0.282506 0.283394,1.14222 0.283394,8.785982 0,6.518885 -0.04938,8.535629 -0.214047,8.745126 -0.328969,0.418489 -0.867604,0.506696 -1.289529,0.211166 z M 2.0369378,50.603369 C 1.709184,50.438696 1.2661086,50.04214 1.0523252,49.722128 0.66645526,49.144514 0.66362828,49.096096 0.66362828,43.06409 c 0,-5.87059 0.012148,-6.095845 0.35900622,-6.657074 0.1974534,-0.319487 0.5634725,-0.685489 0.8133758,-0.813343 0.6939543,-0.355025 1.8330673,-0.497349 2.2395395,-0.279808 0.3511848,0.187945 0.3552931,0.276054 0.3552931,7.618922 0,4.085833 -0.046772,7.550675 -0.1039387,7.699653 -0.143979,0.375199 -1.5200826,0.357731 -2.2899664,-0.02906 z m 57.7462692,0.18652 c -0.166724,-0.06728 -0.214047,-1.766537 -0.214047,-7.686126 0,-8.544689 -0.09501,-7.972025 1.305224,-7.867263 0.952374,0.07125 1.670708,0.47108 2.102982,1.170516 0.346858,0.561229 0.359006,0.786484 0.359006,6.657074 0,6.032006 -0.0026,6.080424 -0.388693,6.658038 -0.213781,0.320012 -0.656858,0.716568 -0.984616,0.881241 -0.560187,0.281446 -1.702394,0.379184 -2.179856,0.18652 z M 27.985643,49.15283 c -0.22849,-0.326219 -0.266565,-1.206748 -0.266565,-6.164539 0,-5.555646 0.01352,-5.797476 0.342474,-6.126433 0.42951,-0.429511 0.888947,-0.436837 1.266012,-0.02019 0.263493,0.291148 0.290501,0.897983 0.279551,6.28005 -0.0082,4.06421 -0.072,6.029903 -0.200482,6.184718 -0.302491,0.364481 -1.120005,0.276094 -1.42099,-0.153618 z m 6.617163,0.175085 c -0.152162,-0.152156 -0.205485,-1.794749 -0.205485,-6.329749 0,-5.879623 0.01321,-6.131344 0.331216,-6.301524 0.491518,-0.263052 0.827535,-0.217166 1.209918,0.165216 0.328956,0.328957 0.342476,0.570787 0.342476,6.126433 0,4.957791 -0.03805,5.83832 -0.266567,6.164539 -0.293671,0.419271 -1.070959,0.515685 -1.411558,0.175085 z m -13.04826,-2.020601 c -0.322239,-0.322239 -0.342475,-0.570787 -0.342475,-4.206567 0,-2.336148 0.07009,-3.995058 0.177261,-4.195306 0.203194,-0.379671 1.166246,-0.460344 1.500862,-0.125731 0.148282,0.148286 0.205485,1.3373 0.205485,4.271217 0,4.007294 -0.0055,4.069562 -0.380576,4.332298 -0.502977,0.352299 -0.748404,0.336243 -1.160557,-0.07591 z m 19.730361,0.07591 c -0.374532,-0.262326 -0.380577,-0.329195 -0.380577,-4.206566 0,-2.388473 0.0698,-4.070423 0.17726,-4.271216 0.218241,-0.407784 1.055414,-0.443976 1.437259,-0.06213 0.228977,0.228978 0.269084,0.854336 0.269084,4.195312 0,3.697905 -0.01994,3.946136 -0.34247,4.268691 -0.412152,0.412155 -0.657582,0.428211 -1.160556,0.07591 z m -23.149078,-2.1195 c -0.09749,-0.182166 -0.177261,-1.210488 -0.177261,-2.285156 0,-1.675484 0.04463,-1.994331 0.313147,-2.23734 0.410822,-0.371787 0.934632,-0.359678 1.287064,0.02977 0.228312,0.252282 0.283396,0.687159 0.283396,2.237339 0,2.255068 -0.120721,2.586626 -0.941804,2.586626 -0.405373,0 -0.642185,-0.102594 -0.764542,-0.331223 z m 26.291086,0.06214 c -0.214149,-0.214153 -0.269084,-0.680683 -0.269084,-2.285158 0,-1.735673 0.04355,-2.055491 0.313146,-2.299471 0.410826,-0.371787 0.934633,-0.359678 1.287069,0.02977 0.228305,0.252283 0.283395,0.68716 0.283395,2.23734 0,1.058307 -0.07977,2.073238 -0.177267,2.255403 -0.218241,0.407792 -1.055406,0.443983 -1.437259,0.06214 z m -29.226417,-0.47802 c -0.378176,-0.188075 -0.413614,-0.317695 -0.459019,-1.678954 -0.05368,-1.609438 0.129566,-2.026108 0.89108,-2.026108 0.705308,0 0.956112,0.500281 0.956112,1.907173 0,1.669129 -0.456984,2.260996 -1.388173,1.797889 z m 32.799826,0.01618 c -0.524887,-0.28696 -0.583581,-0.472531 -0.586364,-1.853872 -0.002,-1.044694 0.05896,-1.3563 0.310524,-1.583944 0.394647,-0.357148 0.952393,-0.363284 1.301374,-0.0143 0.343906,0.343907 0.388834,3.021061 0.05501,3.279344 -0.387818,0.300085 -0.743647,0.356979 -1.080569,0.172782 z"
     id="path1" /></svg>
