<?xml version="1.0" encoding="UTF-8" standalone="no"?>
<!-- Created with Inkscape (http://www.inkscape.org/) -->

<svg
   version="1.1"
   id="svg1"
   width="64"
   height="64"
   viewBox="0 0 64 64"
   sodipodi:docname="Skribbl_icon_dark.svg"
   inkscape:version="1.2.2 (b0a8486541, 2022-12-01)"
   xmlns:inkscape="http://www.inkscape.org/namespaces/inkscape"
   xmlns:sodipodi="http://sodipodi.sourceforge.net/DTD/sodipodi-0.dtd"
   xmlns="http://www.w3.org/2000/svg"
   xmlns:svg="http://www.w3.org/2000/svg">
  <defs
     id="defs1" />
  <sodipodi:namedview
     id="namedview1"
     pagecolor="#505050"
     bordercolor="#eeeeee"
     borderopacity="1"
     inkscape:showpageshadow="0"
     inkscape:pageopacity="0"
     inkscape:pagecheckerboard="0"
     inkscape:deskcolor="#505050"
     inkscape:zoom="7.1182083"
     inkscape:cx="31.890047"
     inkscape:cy="32.100775"
     inkscape:window-width="1920"
     inkscape:window-height="997"
     inkscape:window-x="1920"
     inkscape:window-y="0"
     inkscape:window-maximized="1"
     inkscape:current-layer="g1"
     showgrid="false" />
  <g
     inkscape:groupmode="layer"
     inkscape:label="Image"
     id="g1">
    <path
       style="fill:#7b5da6;fill-opacity:1;stroke-width:1.08678"
       d="m 59.416544,63.62802 -0.202008,-0.0067 -3.249762,-1.013678 -3.249761,-1.013677 -0.386383,-0.180166 -0.386382,-0.180167 -4.732758,-1.467722 -4.732759,-1.467722 -0.228339,-0.12024 -0.228338,-0.120241 0.672357,-0.2183 0.672358,-0.2183 0.422372,-0.266632 0.422373,-0.266632 0.445237,-0.492825 0.445238,-0.492825 0.23894,-0.533578 0.238941,-0.533579 0.06549,-0.808032 0.0655,-0.808032 1.038898,-0.06913 1.038899,-0.06912 0.461733,-0.195937 0.461732,-0.19594 0.43632,-0.301328 0.43632,-0.301329 0.414348,-0.564454 0.414347,-0.564455 0.217089,-0.697507 0.217089,-0.697508 v -0.495395 -0.495397 l 1.067756,-0.04987 1.067757,-0.04987 0.666922,-0.330485 0.666922,-0.330485 0.524169,-0.560378 0.524167,-0.560378 0.294922,-0.66024 0.294922,-0.660239 0.09765,0.230866 0.09765,0.230865 0.989307,4.99711 0.989307,4.997109 0.10681,0.255099 0.106798,0.255099 0.639225,3.232127 0.639223,3.232128 -2.95e-4,0.317441 -2.95e-4,0.317442 z m -0.05772,-0.115032 0.144292,0.0063 V 63.25362 62.987953 l -0.635749,-3.166868 -0.635752,-3.166861 -0.06846,-0.215721 -0.06846,-0.215721 -0.363539,0.06841 -0.363536,0.06841 -0.965075,0.484148 -0.965076,0.484147 -0.908957,0.855083 -0.908957,0.855081 -0.513239,0.826551 -0.513238,0.826549 -0.07503,0.304849 -0.07503,0.304848 0.142236,0.08791 0.142236,0.08791 3.243537,1.014961 3.243536,1.014961 z m -0.165371,-0.23308 -0.209786,-0.0086 -3.095287,-0.970422 -3.095288,-0.970421 -0.110032,-0.068 -0.110031,-0.068 0.434838,-0.82881 0.434838,-0.828811 0.790119,-0.832876 0.790121,-0.832874 0.64304,-0.426826 0.643039,-0.426825 0.760155,-0.321697 0.760155,-0.321696 0.13056,0.138482 0.130559,0.138483 0.597874,3.116694 0.597876,3.116695 0.05852,0.202008 0.05852,0.202008 z M 41.482157,56.699991 40.9761,56.691209 40.587907,56.550729 40.199715,56.410247 39.769336,56.048922 39.338956,55.687597 22.957991,37.493976 6.5770245,19.300357 6.2595833,18.714049 5.9421422,18.127742 l 0.00253,-0.708276 0.00253,-0.708276 0.2109141,-0.464294 0.210914,-0.464294 0.3900131,-0.390013 0.3900129,-0.390014 0.4642943,-0.210913 0.4642942,-0.210914 0.698792,-0.0025 0.6987923,-0.0025 0.5709719,0.284776 0.570972,0.284776 16.564656,18.419667 16.564655,18.419669 0.317441,0.586072 0.317441,0.586072 -0.0025,0.708276 -0.0025,0.708275 -0.211768,0.466201 -0.211767,0.466201 -0.529182,0.465804 -0.529181,0.465805 -0.453099,0.135751 -0.453097,0.135751 z m 5.207884,-4.61986 -0.634882,-0.0062 -0.3463,-0.13551 -0.3463,-0.13551 -0.264817,-0.151077 -0.264818,-0.151079 -5.624702,-6.255462 -5.624704,-6.255461 -5.115634,-5.694173 -5.115631,-5.694174 0.04738,-0.04738 0.04738,-0.04738 6.338231,7.069026 6.33823,7.069028 4.422169,4.922541 4.422169,4.922542 0.593272,0.255219 0.593271,0.255218 0.717369,-0.04568 0.717368,-0.04568 0.557471,-0.344658 0.55747,-0.344658 0.349351,-0.565062 0.349352,-0.565062 -0.003,-0.817083 -0.003,-0.817085 -0.213447,-0.404017 -0.213446,-0.404015 -0.77017,-0.865748 L 47.429497,45.915802 37.41293,34.805362 27.396363,23.694923 h -0.06173 -0.06172 l 0.799646,0.894607 0.799646,0.894606 2.003534,2.250947 2.003535,2.250946 7.915473,8.803442 7.915473,8.803443 0.259725,0.478222 0.259724,0.478223 v 0.708407 0.708409 l -0.375158,0.624144 -0.375157,0.624145 -0.574131,0.294214 -0.574131,0.294214 -0.718143,-0.0084 -0.718142,-0.0084 -0.525262,-0.33798 -0.525262,-0.337979 -7.985399,-8.888352 -7.9854,-8.888352 -2.814756,-3.087836 -2.814758,-3.087837 h -0.06523 -0.06522 l 0.152622,0.202008 0.152623,0.202008 -0.542504,-0.514625 -0.542505,-0.514625 v -0.112996 -0.112995 l 0.375158,0.338305 0.375158,0.338302 -0.454231,-0.487737 -0.454233,-0.487738 -0.05763,0.05762 -0.05762,0.05763 -0.382749,-0.370973 -0.382746,-0.370974 v -0.11068 -0.110679 l 0.259725,0.218095 0.259724,0.218094 -0.337884,-0.372149 -0.337884,-0.37215 -0.05855,0.05855 -0.05854,0.05854 -0.382748,-0.370973 -0.382747,-0.370974 v -0.11068 -0.110679 l 0.259725,0.219072 0.259724,0.219074 -0.279418,-0.31616 -0.279419,-0.316161 -0.05961,0.05961 -0.05961,0.05961 -0.440146,-0.429792 -0.440147,-0.42979 V 22.960878 22.85098 l 0.259725,0.2199 0.259725,0.219898 -0.22054,-0.260432 -0.220538,-0.260433 -0.06102,0.06102 -0.06102,0.06102 -0.49761,-0.488367 -0.497611,-0.488367 V 21.80593 21.696639 l 0.259724,0.219899 0.259725,0.219899 -0.220538,-0.260433 -0.22054,-0.260432 -0.06077,0.06077 -0.06077,0.06078 -0.440146,-0.429791 -0.440146,-0.429791 V 20.77872 20.6799 l 0.144292,0.08668 0.144292,0.08669 -0.160741,-0.198097 -0.160741,-0.198096 -0.06285,0.06285 -0.06285,0.06285 -0.440257,-0.429732 -0.440146,-0.429791 v -0.09882 -0.09882 l 0.133269,0.08237 0.133269,0.08237 -0.08712,-0.140948 -0.08711,-0.140949 -0.068,0.068 -0.068,0.068 -0.49761,-0.488366 -0.49761,-0.488368 v -0.09821 -0.09821 l 0.133269,0.08237 0.133269,0.08237 -0.08353,-0.135152 -0.08353,-0.135151 -0.09969,0.06161 -0.09969,0.06161 L 10.32634,13.105934 5.5757576,7.8228388 5.3303453,7.3611062 5.0849329,6.8993738 5.0841095,6.1490583 5.0832861,5.3987429 5.3068781,4.9408384 5.5304701,4.4829338 5.9532817,4.0601223 6.3760933,3.6373108 6.9829355,3.4357501 7.5897778,3.2341895 l 0.6170163,0.063682 0.6170167,0.063682 0.4657408,0.261761 0.4657407,0.2617611 3.9268417,4.3686027 3.926839,4.3686037 -0.07959,0.128784 -0.0796,0.128786 0.122119,-0.07548 0.122116,-0.07548 0.992333,1.081049 0.992333,1.081052 v 0.08001 0.08001 l -0.133269,-0.08237 -0.133268,-0.08237 0.08712,0.140949 0.08711,0.140948 0.068,-0.068 0.068,-0.068 0.49761,0.488367 0.497609,0.488367 v 0.09821 0.09821 l -0.144291,-0.08669 -0.144291,-0.08668 0.16074,0.1981 0.160741,0.198096 0.06286,-0.06286 0.06284,-0.06284 0.440146,0.429791 0.440145,0.42979 v 0.09882 0.09882 l -0.144291,-0.08669 -0.144292,-0.08668 0.160742,0.198098 0.16074,0.198096 0.06311,-0.06311 0.06311,-0.06311 0.49761,0.488369 0.49761,0.488365 V 18.5423 18.651589 L 22.6511,18.43169 l -0.259724,-0.219898 0.220539,0.26043 0.220538,0.260435 0.06078,-0.06078 0.06077,-0.06077 0.440144,0.429792 0.440147,0.429791 v 0.106135 0.106136 l -0.202009,-0.154933 -0.202007,-0.154933 0.279419,0.313493 0.279418,0.313493 0.0593,-0.05929 0.05929,-0.0593 0.382748,0.370972 0.382746,0.370973 v 0.106929 0.10693 l -0.202007,-0.154933 -0.202009,-0.154933 0.27942,0.313493 0.279418,0.313493 0.0593,-0.0593 0.0593,-0.0593 0.382747,0.370973 0.382747,0.370975 v 0.106929 0.106917 l -0.202007,-0.154932 -0.202009,-0.154932 0.276505,0.310391 0.276504,0.31039 0.08511,-0.0526 0.08511,-0.0526 11.426707,12.692765 11.426705,12.692764 0.21412,0.436191 0.214118,0.436193 -8.12e-4,0.808033 -8.13e-4,0.808031 -0.245725,0.461732 -0.245724,0.461734 -0.328012,0.310636 -0.328013,0.310636 -0.519449,0.235136 -0.51945,0.235136 z M 27.262984,23.579463 h 0.03429 v -0.03429 -0.03429 l -0.49059,-0.456301 -0.490591,-0.456302 0.456301,0.490592 0.4563,0.490591 z M 14.311045,17.346072 h 0.05772 v -0.05772 -0.05772 h -0.05772 -0.05772 v 0.05772 0.05772 z m -1.038899,-1.154331 h 0.05772 v -0.05772 -0.05772 h -0.05772 -0.05772 v 0.05772 0.05772 z m 5.309925,-2.193229 h 0.05772 v -0.05772 -0.05772 h -0.05772 -0.05772 v 0.05772 0.05772 z m 33.203917,33.47561 H 51.102863 L 50.508066,47.156681 49.913269,46.83924 31.434199,26.292141 12.955129,5.7450422 12.741016,5.2833098 12.526902,4.8215773 l 0.0052,-0.2885829 0.0052,-0.2885828 0.145445,0.540163 0.145448,0.5401631 0.293299,0.3833021 0.293299,0.383302 17.745349,19.7390672 17.745349,19.739066 0.652574,0.676747 0.652575,0.676749 0.461733,0.215323 0.461733,0.215324 0.667448,0.0025 0.667447,0.0025 0.429167,-0.179 0.429167,-0.179 0.385006,-0.369308 0.385008,-0.369307 0.170824,-0.32626 0.170826,-0.32626 0.09526,-0.481773 0.09526,-0.481771 0.01265,0.352494 0.01265,0.352492 -0.294226,0.590434 -0.294226,0.590433 -0.398418,0.303889 -0.398419,0.303889 -0.400262,0.16724 -0.400264,0.167242 z m -0.01689,-0.236577 -0.404017,-0.0044 -0.42108,-0.150399 L 50.52293,46.932273 50.237568,46.707807 49.952206,46.483341 31.683659,26.171909 13.415112,5.8604755 13.138341,5.4458236 l -0.27677,-0.4146518 -0.0702,-0.592685 -0.0702,-0.592685 0.151586,-0.541409 0.151584,-0.5414091 0.470199,-0.4893121 0.470197,-0.489312 0.673902,-0.195175 0.673901,-0.195175 0.526725,0.1326309 0.526724,0.1326307 0.322957,0.1670078 0.322958,0.1670076 18.388633,20.4368474 18.388633,20.436847 0.317441,0.585255 0.31744,0.585255 -6.43e-4,0.477409 -6.44e-4,0.477409 -0.127824,0.461733 -0.127825,0.461732 -0.535271,0.535274 -0.535273,0.535271 -0.461732,0.127824 -0.461734,0.127825 z m 2.852204,-3.015389 -0.04722,0.308421 -0.01824,-0.346299 -0.01824,-0.346299 L 54.221105,43.302058 53.904606,42.766137 35.497905,22.305665 17.0912,1.845192 16.509153,1.5741568 15.927109,1.3031218 16.076,1.301994 l 0.148889,-0.00113 0.449563,0.2293496 0.449562,0.2293497 1.190761,1.3061224 1.190761,1.3061225 17.314971,19.2539098 17.314971,19.253911 0.266522,0.517052 0.266521,0.517053 z M 22.282744,26.349858 h -0.05091 l -0.08237,-0.13327 -0.08237,-0.133268 0.133268,0.08237 0.133269,0.08237 v 0.05091 0.0509 z m -1.038898,-1.154331 h -0.05091 l -0.08237,-0.133269 -0.08237,-0.133269 0.13327,0.08237 0.133268,0.08237 v 0.0509 0.05091 z m -1.045712,-1.154333 h -0.05772 v -0.05772 -0.05772 h 0.05772 0.05772 v 0.05772 0.05772 z m 5.893904,-1.846929 h -0.05091 l -0.08237,-0.13327 -0.08237,-0.133268 0.133268,0.08237 0.133269,0.08237 v 0.05091 0.0509 z m -1.038899,-1.154331 h -0.05091 l -0.08237,-0.133269 -0.08237,-0.133269 0.133269,0.08237 0.133267,0.08237 v 0.0509 0.05091 z m -7.856265,-0.3463 h -0.05772 v -0.05772 -0.05772 h 0.05772 0.05772 v 0.05772 0.05772 z m 6.817367,-0.808033 h -0.0509 l -0.08237,-0.133268 -0.08237,-0.133267 0.133269,0.08237 0.133269,0.08237 v 0.05091 0.0509 z m -2.200042,-2.424095 h -0.05772 v -0.05772 -0.05772 h 0.05772 0.05772 v 0.05772 0.05772 z m -1.038898,-1.154332 h -0.05772 v -0.05772 -0.05772 h 0.05772 0.05772 v 0.05772 0.05772 z M 12.685998,3.3455891 12.537413,3.8981121 12.52955,3.63468 12.521687,3.3712479 12.680396,2.9914026 12.839107,2.6115573 13.217775,2.1802774 13.596444,1.7489977 14.035648,1.5249321 14.474853,1.3008664 h 0.14073 0.140799 L 14.135447,1.6183075 13.514513,1.9357487 13.17451,2.3644074 12.834505,2.7930662 Z m 2.663946,-2.0777382 -0.577166,-0.00157 0.319027,-0.048242 0.319029,-0.048242 0.258138,0.049817 0.258137,0.049817 z"
       id="path1" />
  </g>
</svg>
