<?xml version="1.0" encoding="UTF-8" standalone="no"?>
<!-- Created with Inkscape (http://www.inkscape.org/) -->

<svg
   version="1.1"
   id="svg1"
   width="64"
   height="64"
   viewBox="0 0 64 64"
   sodipodi:docname="Skribbl_icon.svg"
   inkscape:version="1.2.2 (b0a8486541, 2022-12-01)"
   xmlns:inkscape="http://www.inkscape.org/namespaces/inkscape"
   xmlns:sodipodi="http://sodipodi.sourceforge.net/DTD/sodipodi-0.dtd"
   xmlns="http://www.w3.org/2000/svg"
   xmlns:svg="http://www.w3.org/2000/svg">
  <defs
     id="defs1" />
  <sodipodi:namedview
     id="namedview1"
     pagecolor="#505050"
     bordercolor="#eeeeee"
     borderopacity="1"
     inkscape:showpageshadow="0"
     inkscape:pageopacity="0"
     inkscape:pagecheckerboard="0"
     inkscape:deskcolor="#505050"
     inkscape:zoom="7.1182083"
     inkscape:cx="26.481383"
     inkscape:cy="44.88489"
     inkscape:window-width="1920"
     inkscape:window-height="997"
     inkscape:window-x="1920"
     inkscape:window-y="0"
     inkscape:window-maximized="1"
     inkscape:current-layer="g1"
     showgrid="false" />
  <g
     inkscape:groupmode="layer"
     inkscape:label="Image"
     id="g1">
    <path
       style="fill:#00549f;fill-opacity:1"
       d="m 56.903997,60.732174 -0.185877,-0.0062 -2.990248,-0.932729 -2.990248,-0.932729 -0.355527,-0.165779 -0.355527,-0.165779 -4.354818,-1.350515 -4.354819,-1.350516 -0.210104,-0.110638 -0.210104,-0.110639 0.618665,-0.200867 0.618666,-0.200868 0.388643,-0.24534 0.388643,-0.245339 0.409683,-0.45347 0.409683,-0.45347 0.219859,-0.490969 0.21986,-0.490969 0.06026,-0.743506 0.06027,-0.743505 0.955935,-0.06361 0.955936,-0.06361 0.424861,-0.180291 0.42486,-0.180292 0.401477,-0.277265 0.401477,-0.277266 0.38126,-0.519379 0.381259,-0.51938 0.199753,-0.641807 0.199753,-0.641807 v -0.455835 -0.455836 l 0.982489,-0.04589 0.98249,-0.04589 0.613664,-0.304094 0.613664,-0.304093 0.48231,-0.515629 0.48231,-0.515628 0.271371,-0.607516 0.27137,-0.607515 0.08985,0.21243 0.08985,0.21243 0.910305,4.598059 0.910305,4.598058 0.09828,0.234728 0.09827,0.234728 0.588178,2.974022 0.588178,2.974022 -2.72e-4,0.292092 -2.71e-4,0.292091 z m -0.05311,-0.105846 0.132769,0.0058 v -0.244452 -0.244452 l -0.584984,-2.913967 -0.584983,-2.913968 -0.063,-0.198494 -0.063,-0.198494 -0.334507,0.06295 -0.334506,0.06295 -0.888008,0.445486 -0.888008,0.445485 -0.836372,0.786799 -0.836371,0.786798 -0.472253,0.760545 -0.472253,0.760545 -0.06904,0.280504 -0.06904,0.280504 0.130878,0.08089 0.130878,0.08089 2.98452,0.93391 2.984519,0.93391 z m -0.152165,-0.214467 -0.193034,-0.0079 -2.848109,-0.892927 -2.848109,-0.892926 -0.101245,-0.06257 -0.101245,-0.06257 0.400113,-0.762625 0.400113,-0.762626 0.727024,-0.766365 0.727025,-0.766364 0.591689,-0.392741 0.591689,-0.392741 0.699452,-0.296007 0.699452,-0.296007 0.120133,0.127424 0.120133,0.127424 0.550131,2.867807 0.550131,2.867807 0.05385,0.185877 0.05385,0.185876 z M 40.401782,54.357392 39.936137,54.349311 39.578944,54.220049 39.221751,54.090786 38.82574,53.758315 38.429729,53.425844 23.356886,36.685097 8.2840424,19.944351 7.9919509,19.404864 7.6998594,18.865377 l 0.00233,-0.651715 0.00233,-0.651716 0.1940713,-0.427217 0.1940712,-0.427218 0.3588681,-0.358868 0.358868,-0.358868 0.4272175,-0.194071 0.4272174,-0.194071 0.6429891,-0.0023 0.64299,-0.0023 0.525376,0.262035 0.525377,0.262035 15.241864,16.948742 15.241864,16.948743 0.292092,0.53927 0.292091,0.539271 -0.0023,0.651715 -0.0023,0.651715 -0.194857,0.428972 -0.194856,0.428972 -0.486924,0.428607 -0.486923,0.428607 -0.416915,0.124911 -0.416915,0.12491 z m 4.792002,-4.250936 -0.584183,-0.0057 -0.318645,-0.124688 -0.318646,-0.124689 -0.24367,-0.139013 -0.24367,-0.139014 -5.175535,-5.755924 -5.175536,-5.755923 -4.707118,-5.239458 -4.707117,-5.239459 0.04359,-0.04359 0.04359,-0.04359 5.832084,6.504521 5.832083,6.504521 4.069031,4.529446 4.069031,4.529446 0.545895,0.234838 0.545895,0.234838 0.660082,-0.04203 0.660082,-0.04203 0.512953,-0.317135 0.512954,-0.317135 0.321453,-0.519938 0.321453,-0.519938 -0.0028,-0.751835 -0.0028,-0.751835 L 47.487838,46.399389 47.291437,46.027636 46.582771,45.231023 45.874105,44.43441 36.657424,34.211208 27.440742,23.988007 h -0.0568 -0.05679 l 0.735789,0.823167 0.735789,0.823166 1.84354,2.071195 1.84354,2.071194 7.283373,8.100432 7.283373,8.100433 0.238984,0.440034 0.238984,0.440033 v 0.651837 0.651837 l -0.345199,0.574303 -0.345199,0.574303 -0.528283,0.270719 -0.528283,0.270719 -0.660794,-0.0077 -0.660794,-0.0077 -0.483317,-0.31099 -0.483316,-0.31099 -7.347715,-8.178562 -7.347716,-8.178561 -2.589981,-2.841253 -2.589982,-2.841254 h -0.06002 -0.06002 l 0.140434,0.185877 0.140435,0.185876 -0.499182,-0.473529 -0.499182,-0.473529 V 26.495092 26.39112 l 0.345199,0.311288 0.3452,0.311287 -0.417959,-0.448788 -0.417959,-0.448789 -0.05303,0.05302 -0.05302,0.05303 -0.352183,-0.341349 -0.352182,-0.341349 v -0.101841 -0.101841 l 0.238984,0.200678 0.238984,0.200678 -0.310902,-0.342431 -0.310902,-0.342431 -0.05387,0.05387 -0.05387,0.05387 -0.352182,-0.341349 -0.352183,-0.341349 v -0.101841 -0.101841 l 0.238984,0.201578 0.238984,0.201579 -0.257105,-0.290913 -0.257106,-0.290913 -0.05485,0.05485 -0.05485,0.05485 -0.404997,-0.39547 -0.404998,-0.395469 v -0.101121 -0.101121 l 0.238984,0.202339 0.238984,0.202338 -0.202928,-0.239635 -0.202927,-0.239635 -0.05615,0.05615 -0.05615,0.05615 -0.457873,-0.449368 -0.457873,-0.449368 v -0.100562 -0.100563 l 0.238984,0.202339 0.238984,0.202338 -0.202927,-0.239635 -0.202928,-0.239635 -0.05592,0.05592 -0.05592,0.05592 -0.404998,-0.395469 -0.404997,-0.39547 v -0.09093 -0.09093 l 0.132769,0.07976 0.132769,0.07977 L 18.226575,21.191038 18.07867,21.00876 18.02084,21.0666 17.963,21.12443 17.558002,20.728961 17.153005,20.333492 v -0.09093 -0.09093 l 0.122626,0.07579 0.122627,0.07579 -0.08016,-0.129693 -0.08015,-0.129693 -0.06257,0.06257 -0.06257,0.06257 -0.457872,-0.449368 -0.457873,-0.449368 v -0.09037 -0.09037 l 0.122627,0.07579 0.122626,0.07579 -0.07686,-0.124359 -0.07686,-0.124358 -0.09173,0.05669 -0.09173,0.05669 L 11.733937,14.244578 7.3627329,9.383385 7.1369183,8.9585247 6.9111036,8.5336644 6.910346,7.8432663 6.9095884,7.1528683 7.1153252,6.7315303 7.3210619,6.3101923 7.7101094,5.9211449 8.0991568,5.5320975 8.6575389,5.3466327 9.215921,5.1611679 l 0.5677437,0.058596 0.5677443,0.058596 0.428548,0.2408577 0.428549,0.2408578 3.613258,4.0197424 3.613257,4.0197422 -0.07324,0.118501 -0.07324,0.118501 0.112366,-0.06945 0.112365,-0.06945 0.913089,0.994721 0.913089,0.994722 v 0.07362 0.07362 l -0.122627,-0.07579 -0.122626,-0.07579 0.08016,0.129693 0.08015,0.129693 0.06257,-0.06257 0.06257,-0.06257 0.457873,0.449368 0.457872,0.449368 v 0.09037 0.09037 l -0.132769,-0.07977 -0.132768,-0.07976 0.147904,0.182279 0.147905,0.182278 0.05784,-0.05784 0.05783,-0.05783 0.404998,0.395469 0.404997,0.395469 v 0.09093 0.09093 l -0.132769,-0.07977 -0.132769,-0.07976 0.147905,0.182279 0.147904,0.182278 0.05807,-0.05807 0.05807,-0.05807 0.457872,0.449368 0.457873,0.449368 v 0.100562 0.100562 l -0.238984,-0.202338 -0.238984,-0.202339 0.202928,0.239635 0.202927,0.239636 0.05592,-0.05592 0.05592,-0.05592 0.404997,0.39547 0.404998,0.395469 v 0.09766 0.09766 l -0.185877,-0.14256 -0.185876,-0.142561 0.257105,0.288459 0.257105,0.288458 0.05456,-0.05456 0.05456,-0.05456 0.352183,0.341348 0.352182,0.341349 v 0.09839 0.09839 l -0.185876,-0.142561 -0.185877,-0.14256 0.257106,0.288459 0.257105,0.288458 0.05456,-0.05456 0.05456,-0.05456 0.352182,0.341349 0.352183,0.341349 v 0.09839 0.09838 l -0.185876,-0.14256 -0.185877,-0.14256 0.254424,0.285604 0.254423,0.285604 0.07831,-0.0484 0.07831,-0.0484 10.514212,11.679169 10.514212,11.679168 0.197021,0.401359 0.19702,0.401359 -7.48e-4,0.743506 -7.48e-4,0.743505 -0.226102,0.42486 -0.226101,0.424861 -0.301819,0.28583 -0.301819,0.28583 -0.477968,0.216359 -0.477968,0.216359 z M 27.318099,23.881744 h 0.03155 v -0.03155 -0.03155 l -0.451414,-0.419863 -0.451414,-0.419863 0.419862,0.451415 0.419863,0.451414 z M 15.400453,18.146129 h 0.05311 v -0.05311 -0.05311 h -0.05311 -0.05311 v 0.05311 0.05311 z m -0.955936,-1.062151 h 0.05311 v -0.05311 -0.05311 h -0.05311 -0.05311 v 0.05311 0.05311 z m 4.885894,-2.018086 h 0.05311 v -0.05311 -0.05311 h -0.05311 -0.05311 v 0.05311 0.05311 z M 49.882788,45.868266 H 49.254215 L 48.706916,45.576174 48.159617,45.284083 31.156216,26.377798 14.152815,7.4715135 13.9558,7.0466532 13.758785,6.6217929 l 0.0048,-0.2655377 0.0048,-0.2655377 0.133831,0.4970277 0.133832,0.4970277 0.269878,0.352693 0.269877,0.3526929 16.328272,18.1627792 16.328272,18.162779 0.600462,0.622705 0.600463,0.622706 0.42486,0.198128 0.424861,0.198129 0.614148,0.0023 0.614148,0.0023 0.394895,-0.164706 0.394895,-0.164706 0.354261,-0.339816 0.354262,-0.339816 0.157184,-0.300206 0.157184,-0.300206 0.08765,-0.4433 0.08765,-0.443299 0.01164,0.324345 0.01164,0.324344 -0.27073,0.543284 -0.27073,0.543283 -0.366602,0.279622 -0.366603,0.279621 -0.368299,0.153885 -0.3683,0.153886 z m -0.01554,-0.217685 -0.371753,-0.0041 L 49.108044,45.508099 48.720593,45.369687 48.458019,45.163146 48.195445,44.956605 31.385755,26.267167 14.576066,7.5777286 14.321397,7.1961893 14.066728,6.81465 l -0.06459,-0.5453554 -0.06459,-0.5453554 0.13948,-0.4981741 0.13948,-0.4981742 0.43265,-0.4502374 0.432649,-0.4502374 0.620087,-0.1795891 0.620086,-0.179589 0.484663,0.1220394 0.484662,0.1220394 0.297167,0.1536711 0.297167,0.153671 16.920186,18.8048371 16.920186,18.804838 0.292091,0.538519 0.292091,0.538518 -5.92e-4,0.439285 -5.92e-4,0.439285 -0.117617,0.424861 -0.117617,0.42486 -0.492527,0.492528 -0.492528,0.492527 -0.42486,0.117617 -0.424861,0.117617 z m 2.624438,-2.774591 -0.04345,0.283791 -0.01678,-0.318645 -0.01678,-0.318645 L 52.123451,42.029367 51.832227,41.536243 34.895411,22.709667 17.958595,3.8830906 17.423029,3.6336993 16.887464,3.3843081 l 0.137001,-0.00104 0.137,-0.00104 0.413662,0.2110346 0.413662,0.2110346 1.095671,1.2018204 1.095672,1.2018205 15.932262,17.7163648 15.932263,17.716365 0.245238,0.475763 0.245238,0.475763 z M 22.735562,26.430906 h -0.04684 l -0.07579,-0.122627 -0.07579,-0.122626 0.122626,0.07579 0.122626,0.07579 v 0.04684 0.04684 z m -0.955935,-1.062151 h -0.04684 l -0.07579,-0.122626 -0.07579,-0.122627 0.122627,0.07579 0.122626,0.07579 v 0.04684 0.04684 z m -0.962205,-1.062151 h -0.05311 v -0.05311 -0.05311 h 0.05311 0.05311 v 0.05311 0.05311 z m 5.423238,-1.699441 h -0.04684 l -0.07579,-0.122627 -0.07579,-0.122626 0.122626,0.07579 0.122626,0.07579 v 0.04684 0.04684 z m -0.955936,-1.062151 h -0.04684 l -0.07579,-0.122626 -0.07579,-0.122627 0.122626,0.07579 0.122626,0.07579 v 0.04684 0.04684 z M 18.05583,21.226367 h -0.05311 v -0.05311 -0.05311 h 0.05311 0.05311 v 0.05311 0.05311 z m 6.272959,-0.743506 h -0.04684 l -0.07579,-0.122626 -0.07579,-0.122626 0.122626,0.07579 0.122627,0.07579 v 0.04684 0.04684 z m -2.024355,-2.230517 h -0.05311 v -0.05311 -0.05311 h 0.05311 0.05311 v 0.05311 0.05311 z m -0.955936,-1.062151 h -0.05311 v -0.05311 -0.05311 h 0.05311 0.05311 v 0.05311 0.05311 z m -7.443322,-11.9265214 -0.136719,0.5084006 -0.0072,-0.2423954 -0.0072,-0.2423954 0.146036,-0.3495123 0.146036,-0.3495123 0.348429,-0.3968394 0.34843,-0.3968394 0.404131,-0.2061726 0.404132,-0.2061726 h 0.129492 0.129555 L 15.238949,3.6743243 14.6676,3.9664158 14.354748,4.3608434 14.041895,4.7552711 Z m 2.451213,-1.9118178 -0.531075,-0.00145 0.293551,-0.044389 0.293552,-0.044389 0.237524,0.045839 0.237523,0.045839 z"
       id="path1" />
  </g>
</svg>
